<svg width="237" height="71" viewBox="0 0 237 71" fill="none" xmlns="http://www.w3.org/2000/svg">
<path d="M62.2125 35.4015C62.2125 36.5191 62.1137 37.6367 62.0479 38.7543C60.4021 53.6445 47.7292 65.2807 32.3571 65.2807C15.8658 65.2807 2.50166 51.9353 2.50166 35.4672C2.50166 18.9992 15.8658 5.65381 32.3571 5.65381C37.4592 5.65381 42.265 6.93575 46.4125 9.17094L43.3183 15.1862C40.0267 13.3783 36.34 12.4251 32.3571 12.4251C19.5854 12.4251 9.24958 22.7793 9.24958 35.5001C9.24958 48.2209 19.6183 58.5751 32.3571 58.5751C44.0096 58.5751 53.5883 50.0617 55.2342 38.8529H27.8804V45.4927H41.2446V52.1325H21.2642V18.8677H41.2775V25.5075H27.8804V32.1473H62.0479C62.1467 33.1663 62.2125 34.2839 62.2125 35.4015Z" fill="url(#paint0_linear_3_353)"/>
<path d="M75.7083 45.5583C73.6675 45.5583 71.89 44.8352 70.4417 43.3889C68.9933 41.9426 68.2692 40.1676 68.2692 38.1296C68.2692 36.0588 68.9933 34.3167 70.4417 32.8704C71.89 31.4241 73.6675 30.7009 75.7083 30.7009C77.7492 30.7009 79.5267 31.4241 80.975 32.8704C81.9954 33.8894 82.6867 35.1384 82.9829 36.5847C83.0817 37.0778 83.1475 37.6037 83.1475 38.1296C83.1475 38.6556 83.1146 39.1815 82.9829 39.6745H72.0875C72.0875 38.8199 72.3837 38.0968 72.9762 37.5051C73.5687 36.9134 74.3258 36.6176 75.1488 36.6176H79.7242C79.4937 36.0259 79.1646 35.5 78.7367 35.0727C77.8808 34.2181 76.8604 33.7907 75.6425 33.7907C74.4246 33.7907 73.4042 34.2181 72.5483 35.0727C71.6925 35.9273 71.2646 36.9463 71.2646 38.1625C71.2646 39.3787 71.6925 40.3977 72.5483 41.2523C73.4042 42.1069 74.4246 42.5343 75.6425 42.5343H78.5721C79.4608 42.5343 80.2179 42.863 80.8104 43.5204C81.37 44.112 81.6333 44.8352 81.6333 45.6241H75.7083V45.5583Z" fill="#0E1F29"/>
<path d="M87.6242 43.3889C86.1758 41.7782 85.4517 40.0361 85.4517 38.1296C85.4517 36.2231 86.1758 34.481 87.6242 32.8704C89.1713 31.4241 90.9158 30.7009 92.8908 30.7009C94.8 30.7009 96.5446 31.4241 98.1575 32.8704C99.0463 33.7579 99.6388 34.744 99.9679 35.8616C99.5071 36.1245 99.0133 36.256 98.4867 36.256C97.6308 36.256 96.9067 35.9602 96.2813 35.3685L95.9521 35.0727C95.0633 34.2181 94.0429 33.7907 92.8579 33.7907C91.7388 33.7907 90.7183 34.2181 89.7638 35.0727C88.9079 35.9931 88.48 37.0449 88.48 38.1625C88.48 39.2801 88.9079 40.2991 89.7638 41.2523C90.6854 42.1069 91.7388 42.5343 92.8579 42.5343C94.01 42.5343 95.0633 42.1069 95.9521 41.2523L96.2813 40.9565C96.8079 40.4634 97.2688 40.1676 97.6638 40.1347C98.0588 40.1019 98.3221 40.069 98.4538 40.069C98.9804 40.069 99.5071 40.2005 99.9679 40.4634C99.6058 41.581 99.0133 42.5671 98.1575 43.4546C96.5446 44.9009 94.8 45.6241 92.8908 45.6241C90.9158 45.5583 89.1713 44.8681 87.6242 43.3889Z" fill="#0E1F29"/>
<path d="M104.477 43.3889C103.029 41.9426 102.305 40.1676 102.305 38.1296C102.305 36.0588 103.029 34.3167 104.477 32.8704C105.926 31.4241 107.703 30.7009 109.777 30.7009C111.818 30.7009 113.562 31.4241 115.044 32.8704C116.492 34.3167 117.249 36.0588 117.249 38.1296C117.249 40.1676 116.525 41.9426 115.044 43.3889C113.595 44.8352 111.851 45.5583 109.777 45.5583C107.703 45.5583 105.926 44.8681 104.477 43.3889ZM112.838 41.2194C113.694 40.3648 114.122 39.3458 114.122 38.1296C114.122 36.9134 113.694 35.8944 112.838 35.0398C111.982 34.1852 110.962 33.7579 109.777 33.7579C108.559 33.7579 107.539 34.1852 106.683 35.0398C105.827 35.8944 105.399 36.9134 105.399 38.1296C105.399 39.3458 105.827 40.3648 106.683 41.2194C107.539 42.0741 108.559 42.5014 109.777 42.5014C110.962 42.4685 111.982 42.0412 112.838 41.2194Z" fill="#0E1F29"/>
<path d="M144.043 44.6707C143.451 44.0791 143.155 43.3231 143.155 42.5013V38.1295C143.155 36.8805 142.727 35.8615 141.838 35.0397C140.982 34.1851 139.929 33.7907 138.678 33.7907H138.645C137.493 33.8564 136.505 34.2837 135.748 35.1055C134.991 35.8944 134.563 36.8805 134.465 38.0309C134.465 38.0967 134.465 40.6277 134.465 45.5911C133.576 45.5911 132.885 45.2624 132.259 44.6707C131.634 44.0791 131.37 43.3559 131.37 42.5013V37.9323C131.272 36.7161 130.811 35.73 129.988 34.9411C129.165 34.1522 128.145 33.7907 126.96 33.7907H126.861C125.643 33.8564 124.655 34.3166 123.865 35.1712C123.075 36.0258 122.68 37.0448 122.68 38.2282V42.4684C122.68 43.3231 122.384 44.0462 121.792 44.6379C121.199 45.2295 120.442 45.5254 119.586 45.5254V30.7008C120.442 30.7008 121.166 30.9967 121.792 31.5883C122.022 31.8184 122.22 32.0485 122.351 32.3444C123.701 31.2268 125.248 30.668 127.058 30.668C129.461 30.668 131.436 31.6212 132.95 33.5606C134.497 31.6212 136.44 30.668 138.842 30.668C140.883 30.668 142.628 31.3911 144.109 32.8703C145.59 34.3494 146.315 36.0587 146.315 38.1295V45.5582C145.36 45.5582 144.636 45.2624 144.043 44.6707Z" fill="#0E1F29"/>
<path d="M148.487 51.9351C148.487 50.7518 149.047 49.8314 150.166 49.2069C150.627 48.9768 151.087 48.8782 151.581 48.8782H155.926C157.144 48.8782 158.165 48.4508 159.02 47.5962C159.876 46.7416 160.304 45.7226 160.304 44.5064V44.1777C159.02 45.0981 157.572 45.5911 155.926 45.5911C154.379 45.5911 152.997 45.1638 151.746 44.3092C150.791 43.6518 150.034 42.8629 149.475 41.8439C148.816 40.7263 148.487 39.4772 148.487 38.1295C148.487 36.0916 149.211 34.3166 150.66 32.8703C152.108 31.424 153.885 30.668 155.926 30.668H163.365C163.365 31.5226 163.069 32.2457 162.477 32.8374C161.884 33.4291 161.127 33.7249 160.304 33.7249H155.926C154.708 33.7249 153.688 34.1522 152.832 35.0069C151.976 35.8615 151.548 36.8805 151.548 38.0967C151.548 38.5569 151.614 38.9513 151.746 39.3457C152.075 40.3976 152.7 41.2194 153.655 41.811C154.313 42.2383 155.07 42.4356 155.926 42.4356C156.782 42.4356 157.506 42.2055 158.197 41.811C159.119 41.2194 159.777 40.3976 160.107 39.3457C160.238 38.9513 160.304 38.524 160.304 38.0967C160.304 37.3407 160.535 36.7161 160.995 36.1573C161.621 35.4013 162.411 35.0069 163.398 35.0069V44.4407C163.398 46.5115 162.674 48.2536 161.193 49.6999C159.745 51.1462 158 51.8694 155.926 51.8694H148.487V51.9351Z" fill="#00A797"/>
<path d="M166.591 44.6707C165.999 44.0791 165.702 43.3231 165.702 42.5013V21.793C166.558 21.793 167.283 22.0888 167.875 22.6805C168.468 23.2721 168.764 24.0282 168.764 24.8828V45.5911C167.908 45.5582 167.184 45.2624 166.591 44.6707Z" fill="#00A797"/>
<path d="M178.507 45.5583C176.466 45.5583 174.689 44.8352 173.24 43.3889C171.792 41.9426 171.068 40.1676 171.068 38.1296C171.068 36.0588 171.792 34.3167 173.24 32.8704C174.689 31.4241 176.466 30.7009 178.507 30.7009C180.548 30.7009 182.325 31.4241 183.774 32.8704C184.794 33.8894 185.485 35.1384 185.782 36.5847C185.88 37.0778 185.946 37.6037 185.946 38.1296C185.946 38.6556 185.913 39.1815 185.782 39.6745H174.886C174.886 38.8199 175.183 38.0968 175.775 37.5051C176.368 36.9134 177.125 36.6176 177.947 36.6176H182.523C182.293 36.0259 181.963 35.5 181.535 35.0727C180.68 34.2181 179.659 33.7907 178.441 33.7907C177.223 33.7907 176.203 34.2181 175.347 35.0727C174.491 35.9273 174.063 36.9463 174.063 38.1625C174.063 39.3787 174.491 40.3977 175.347 41.2523C176.203 42.1069 177.223 42.5343 178.441 42.5343H181.371C182.26 42.5343 183.017 42.863 183.609 43.5204C184.169 44.112 184.432 44.8352 184.432 45.6241H178.507V45.5583Z" fill="#00A797"/>
<path d="M200.397 43.9147C200.166 43.4874 200.067 43.0272 200.067 42.5013V38.1295C200.067 36.9133 199.64 35.8944 198.784 35.0397C197.928 34.1851 196.908 33.7578 195.69 33.7578C194.472 33.7578 193.451 34.1851 192.595 35.0397C191.74 35.8944 191.312 36.9133 191.312 38.1295C191.312 39.3457 191.74 40.3647 192.595 41.2194C193.451 42.074 194.472 42.5013 195.69 42.5013H196.973C198.257 42.5013 199.179 43.1258 199.804 44.342C199.969 44.7365 200.067 45.1309 200.067 45.5582H195.69C193.221 45.5582 191.213 44.5393 189.666 42.4684C188.744 41.1865 188.25 39.7402 188.25 38.0967C188.25 36.0258 188.975 34.2837 190.423 32.8374C191.871 31.3911 193.649 30.668 195.69 30.668H196.085C196.348 30.668 196.611 30.7008 196.875 30.7666C197.237 30.7994 197.5 30.8652 197.73 30.9638C198.027 31.0295 198.29 31.1282 198.52 31.2268C199.047 31.4569 199.541 31.7198 200.002 32.0485L200.035 32.0814C200.364 32.3115 200.66 32.5744 200.923 32.8374C202.372 34.2837 203.096 36.0258 203.096 38.0967V45.5254C201.977 45.5582 201.055 45.0323 200.397 43.9147Z" fill="#00A797"/>
<path d="M229.989 44.6707C229.396 44.0791 229.1 43.3231 229.1 42.5013V38.1295C229.1 36.8805 228.672 35.8615 227.783 35.0397C226.928 34.1851 225.874 33.7907 224.623 33.7907H224.59C223.438 33.8564 222.451 34.2837 221.694 35.1055C220.937 35.8944 220.509 36.8805 220.41 38.0309C220.41 38.0967 220.41 40.6277 220.41 45.5911C219.521 45.5911 218.83 45.2624 218.205 44.6707C217.579 44.0791 217.316 43.3559 217.316 42.5013V37.9323C217.217 36.7161 216.756 35.73 215.933 34.9411C215.11 34.1522 214.09 33.7907 212.905 33.7907H212.806C211.588 33.8564 210.601 34.3166 209.811 35.1712C209.021 36.0258 208.626 37.0448 208.626 38.2282V42.4684C208.626 43.3231 208.33 44.0462 207.737 44.6379C207.145 45.2295 206.388 45.5254 205.532 45.5254V30.7008C206.388 30.7008 207.112 30.9967 207.737 31.5883C207.967 31.8184 208.165 32.0485 208.297 32.3444C209.646 31.2268 211.193 30.668 213.004 30.668C215.407 30.668 217.382 31.6212 218.896 33.5606C220.443 31.6212 222.385 30.668 224.788 30.668C226.829 30.668 228.573 31.3911 230.055 32.8703C231.536 34.3494 232.26 36.0587 232.26 38.1295V45.5582C231.305 45.5582 230.581 45.2624 229.989 44.6707Z" fill="#00A797"/>
<defs>
<linearGradient id="paint0_linear_3_353" x1="7.77044" y1="11.9672" x2="66.9798" y2="70.8774" gradientUnits="userSpaceOnUse">
<stop stop-color="#0E1F29"/>
<stop offset="1" stop-color="#008271"/>
</linearGradient>
</defs>
</svg>
