<svg width="61" height="61" viewBox="0 0 61 61" fill="none" xmlns="http://www.w3.org/2000/svg">
<path d="M60.2125 30.4015C60.2125 31.5191 60.1137 32.6367 60.0479 33.7543C58.4021 48.6445 45.7292 60.2807 30.3571 60.2807C13.8658 60.2807 0.501663 46.9353 0.501663 30.4672C0.501663 13.9992 13.8658 0.653809 30.3571 0.653809C35.4592 0.653809 40.265 1.93575 44.4125 4.17094L41.3183 10.1862C38.0267 8.37835 34.34 7.4251 30.3571 7.4251C17.5854 7.4251 7.24958 17.7793 7.24958 30.5001C7.24958 43.2209 17.6183 53.5751 30.3571 53.5751C42.0096 53.5751 51.5883 45.0617 53.2342 33.8529H25.8804V40.4927H39.2446V47.1325H19.2642V13.8677H39.2775V20.5075H25.8804V27.1473H60.0479C60.1467 28.1663 60.2125 29.2839 60.2125 30.4015Z" fill="url(#paint0_linear_3_354)"/>
<defs>
<linearGradient id="paint0_linear_3_354" x1="5.77044" y1="6.96719" x2="64.9798" y2="65.8774" gradientUnits="userSpaceOnUse">
<stop stop-color="#0E1F29"/>
<stop offset="1" stop-color="#008271"/>
</linearGradient>
</defs>
</svg>
