<svg width="106" height="106" viewBox="0 0 106 106" fill="none" xmlns="http://www.w3.org/2000/svg">
<path d="M26.924 28.6554V19.6454C22.26 20.3874 18.656 24.4154 18.656 29.2914C18.656 31.4467 19.3627 33.3901 20.5287 35.0154L26.924 28.6554Z" fill="#0E8372"/>
<path d="M29.9627 27.772H38.054C37.3827 23.6027 34.0967 20.352 29.9627 19.6807V27.772Z" fill="#0E8372"/>
<path d="M80.9133 36.464H74.6947V67.4513H80.9133V36.464Z" fill="#0E8372"/>
<path d="M62.0807 78.8993L73.1753 102.078H77.3447L66.3913 78.8993H62.0807Z" fill="#0E8372"/>
<path d="M29.0793 30.8107L22.7193 37.1707C24.3447 38.3367 26.3233 39.0433 28.4433 39.0433C33.3193 39.0433 37.3473 35.4747 38.0893 30.8107H29.0793Z" fill="#0E8372"/>
<path d="M31.4113 102.078H35.5807L46.6753 78.8993H42.4L31.4113 102.078Z" fill="#0E8372"/>
<path d="M56.604 78.8993H52.1167V102.043H56.604V78.8993Z" fill="#0E8372"/>
<path d="M65.5787 50.668H59.36V67.4513H65.5787V50.668Z" fill="#0E8372"/>
<path d="M97.202 3.922H8.83333C8.09133 3.922 7.38467 4.20466 6.85467 4.73466C6.28933 5.3 6.00667 5.97133 6.00667 6.74866C6.00667 8.268 7.208 9.50466 8.72734 9.54H97.2727C98.792 9.50466 99.9933 8.268 99.9933 6.74866C99.9933 5.194 98.7567 3.922 97.202 3.922Z" fill="#0E8372"/>
<path d="M50.2087 42.718H43.99V67.4513H50.2087V42.718Z" fill="#0E8372"/>
<path d="M9.68134 12.614V69.8894C9.68134 73.1754 12.3667 75.8254 15.6173 75.8254H90.3827C93.6687 75.8254 96.3187 73.14 96.3187 69.8894V12.614H9.68134ZM15.6173 29.2913C15.6173 22.2247 21.3767 16.4653 28.4433 16.4653C35.51 16.4653 41.2693 22.2247 41.2693 29.2913C41.2693 36.358 35.51 42.1173 28.4433 42.1173C21.3413 42.1173 15.6173 36.358 15.6173 29.2913ZM86.814 70.5254H19.2213C18.3733 70.5254 17.702 69.8187 17.702 69.006C17.702 68.1934 18.4087 67.4867 19.2213 67.4867H25.2633V49.184C25.2633 48.336 25.97 47.6647 26.7827 47.6647H36.0753C36.9233 47.6647 37.5947 48.3713 37.5947 49.184V67.4867H40.9513V41.234C40.9513 40.386 41.658 39.7147 42.4707 39.7147H51.7633C52.6113 39.7147 53.2827 40.4213 53.2827 41.234V67.4867H56.286V49.184C56.286 48.336 56.9927 47.6647 57.8053 47.6647H67.098C67.946 47.6647 68.6173 48.3713 68.6173 49.184V67.4867H71.6207V34.9447C71.6207 34.0967 72.3273 33.4253 73.14 33.4253H82.4327C83.2807 33.4253 83.952 34.132 83.952 34.9447V67.4867H86.7787C87.6267 67.4867 88.298 68.1934 88.298 69.006C88.298 69.8187 87.662 70.5254 86.814 70.5254Z" fill="#0E8372"/>
<path d="M34.5207 50.668H28.302V67.4513H34.5207V50.668Z" fill="#0E8372"/>
</svg>
