<svg width="139" height="139" viewBox="0 0 139 139" fill="none" xmlns="http://www.w3.org/2000/svg">
<path d="M72.558 49.7621C72.558 46.8431 70.195 44.4801 67.276 44.4801C65.886 44.4801 64.496 45.0361 63.523 46.0091L52.125 57.4071L47.677 52.8201C45.592 50.7351 42.256 50.7351 40.171 52.8201C38.086 54.9051 38.086 58.2411 40.171 60.3261L48.372 68.5271C50.457 70.6121 53.793 70.6121 55.878 68.5271L71.029 53.3761C72.002 52.4031 72.558 51.1521 72.558 49.7621ZM68.527 51.0131L53.515 66.0251C52.82 66.7201 51.708 66.7201 51.013 66.0251L42.812 57.8241C42.117 57.1291 42.117 56.0171 42.812 55.3221C43.507 54.6271 44.619 54.6271 45.314 55.3221L51.013 61.0211C51.708 61.7161 52.82 61.7161 53.515 61.0211L66.164 48.3721C66.859 47.6771 67.971 47.6771 68.666 48.3721C68.944 48.6501 69.222 49.2061 69.222 49.6231C69.083 50.1791 68.944 50.5961 68.527 51.0131ZM108.142 82.0101C108.142 71.1681 99.385 62.2721 88.404 62.2721C77.423 62.2721 68.805 71.1681 68.805 82.0101C68.805 92.8521 77.562 101.748 88.543 101.748C93.825 101.748 98.829 99.6631 102.443 96.0491C106.057 92.2961 108.142 87.2921 108.142 82.0101ZM88.404 98.2731C79.508 98.2731 72.28 91.0451 72.28 82.0101C72.28 72.9751 79.508 65.7471 88.543 65.7471C97.578 65.7471 104.667 73.1141 104.667 82.0101C104.667 86.3191 102.999 90.4891 99.941 93.4081C96.883 96.6051 92.713 98.2731 88.404 98.2731ZM124.822 121.486L110.922 97.3001L115.231 93.6861C116.899 92.2961 117.455 90.2111 116.899 88.1261L115.37 83.1221C115.231 82.8441 115.231 82.5661 115.37 82.1491L117.038 75.7551C117.594 73.6701 116.76 71.5851 115.092 70.3341L110.922 67.1371C110.644 66.9981 110.505 66.7201 110.366 66.4421L107.864 60.3261C107.03 58.2411 105.223 56.9901 103.138 56.9901L97.856 56.8511C97.578 56.8511 97.161 56.7121 97.022 56.5731L96.049 56.0171C97.022 46.0091 97.439 36.0011 97.3 25.9931C97.3 24.7421 97.3 23.4911 97.3 22.2401C97.3 21.5451 96.883 20.8501 96.188 20.5721L56.156 7.08911C55.739 6.95011 55.461 6.95011 55.044 7.08911L15.151 20.5721C14.456 20.8501 13.9 21.4061 13.9 22.2401C13.9 23.4911 13.9 24.7421 13.9 25.9931C14.039 43.6461 14.178 60.3261 19.182 74.6431C21.684 82.0101 25.854 88.6821 31.414 94.1031C37.53 99.9411 45.175 104.389 54.905 107.725C55.322 107.864 55.6 107.864 56.017 107.725C57.824 107.169 59.492 106.474 61.021 105.918L51.986 121.625C51.569 122.459 51.847 123.571 52.681 123.988C53.098 124.266 53.515 124.266 53.932 124.127L63.106 121.625L65.608 130.799C65.747 131.494 66.303 132.05 66.998 132.05C67.137 132.05 67.137 132.05 67.276 132.05C67.832 132.05 68.527 131.772 68.805 131.216L81.732 108.837L85.485 111.2C87.292 112.312 89.516 112.312 91.184 111.061L94.798 108.559L107.864 131.216C108.142 131.772 108.698 132.05 109.393 132.05C109.532 132.05 109.532 132.05 109.671 132.05C110.366 131.911 110.922 131.494 111.061 130.799L113.563 121.625L122.737 124.127C123.71 124.405 124.683 123.849 124.822 122.876C125.1 122.32 124.961 121.903 124.822 121.486ZM55.6 104.111C38.503 98.2731 27.939 88.5431 22.518 73.3921C17.653 59.6311 17.514 43.2291 17.375 25.8541C17.375 25.0201 17.375 24.1861 17.375 23.3521L55.6 10.5641L93.825 23.4911V25.9931C93.825 35.8621 93.686 45.1751 92.852 53.9321L91.462 53.0981C89.655 51.9861 87.431 51.9861 85.763 53.2371L81.871 55.6001C82.705 47.9551 83.122 40.1711 82.983 32.3871C82.983 31.6921 82.566 30.9971 81.871 30.7191L56.156 21.9621C55.739 21.8231 55.461 21.8231 55.044 21.9621L29.329 30.7191C28.634 30.9971 28.078 31.6921 28.217 32.3871C28.356 43.6461 28.356 56.4341 31.831 67.1371C35.167 78.6741 43.785 88.1261 55.044 92.4351C55.461 92.5741 56.017 92.5741 56.434 92.4351C57.685 91.8791 58.936 91.3231 60.048 90.7671C60.326 91.8791 61.021 92.9911 61.994 93.6861L66.164 96.8831L66.303 97.0221L64.218 100.497C61.438 102.026 58.519 103.138 55.6 104.111ZM61.716 70.3341C60.048 71.7241 59.492 73.8091 60.048 75.8941L61.577 81.0371C61.716 81.3151 61.716 81.7321 61.577 82.0101L60.465 86.7361C58.936 87.7091 57.268 88.4041 55.739 89.2381C32.526 79.0911 31.97 56.2951 31.831 33.9161L55.6 25.4371L79.508 33.4991C79.647 41.1441 79.23 48.7891 78.257 56.4341L73.67 56.8511C71.585 56.9901 69.778 58.3801 69.083 60.3261L67.415 65.3301C67.276 65.6081 67.137 65.8861 66.859 66.0251L61.716 70.3341ZM67.971 125.795L66.164 118.984C65.886 118.011 64.913 117.455 64.079 117.733L57.268 119.54L67.971 101.053L69.083 103.833C69.917 105.779 71.724 107.03 73.809 107.169L78.674 107.308L67.971 125.795ZM89.377 108.142C88.821 108.559 87.987 108.559 87.431 108.142L81.871 104.667C81.037 104.111 80.203 103.833 79.23 103.833L73.948 103.694C73.253 103.694 72.558 103.277 72.28 102.582L69.778 96.4661C69.5 95.6321 68.805 94.7981 68.11 94.2421L63.94 91.0451C63.384 90.6281 63.106 89.9331 63.245 89.2381L64.913 82.8441C65.191 82.0101 65.191 81.0371 64.913 80.0641L63.384 74.9211C63.106 74.2261 63.384 73.5311 63.94 73.1141L69.083 68.8051C69.778 68.2491 70.334 67.4151 70.612 66.5811L72.419 61.5771C72.697 60.8821 73.253 60.4651 73.948 60.4651L80.62 60.0481C81.593 60.0481 82.427 59.6311 83.261 59.2141L87.57 56.2951C88.126 55.8781 88.96 55.8781 89.516 56.2951L95.076 59.7701C95.91 60.3261 96.744 60.6041 97.717 60.6041L102.999 60.7431C103.694 60.7431 104.389 61.1601 104.667 61.8551L107.169 67.9711C107.447 68.8051 108.142 69.6391 108.837 70.1951L113.007 73.3921C113.563 73.8091 113.841 74.5041 113.702 75.1991L112.173 81.5931C111.895 82.4271 111.895 83.4001 112.173 84.3731L113.702 89.5161C113.98 90.2111 113.702 90.9061 113.146 91.3231L108.003 95.6321C107.308 96.1881 106.752 97.0221 106.474 97.8561L104.667 102.86C104.389 103.555 103.833 103.972 103.138 103.972L96.327 104.25C95.354 104.25 94.52 104.667 93.686 105.084L89.377 108.142ZM112.868 117.733C111.895 117.455 110.922 118.011 110.783 118.984L108.976 125.795L98.412 107.586L103.277 107.308C105.362 107.169 107.169 105.779 107.864 103.833L108.976 100.914L119.679 119.54L112.868 117.733ZM101.192 78.9521C100.914 78.2571 100.358 77.8401 99.663 77.7011L92.713 77.0061L89.933 70.6121C89.516 69.7781 88.543 69.3611 87.709 69.6391C87.292 69.7781 87.014 70.1951 86.736 70.6121L83.956 77.0061L77.006 77.7011C76.033 77.8401 75.338 78.6741 75.477 79.6471C75.477 80.0641 75.755 80.4811 76.033 80.7591L81.176 85.3461L79.647 92.1571C79.369 93.1301 80.064 93.9641 80.898 94.2421C81.315 94.3811 81.732 94.2421 82.149 94.1031L88.126 90.6281L94.103 94.1031C94.937 94.6591 96.049 94.3811 96.466 93.5471C96.744 93.1301 96.744 92.7131 96.605 92.2961L95.076 85.4851L100.219 80.8981C101.192 80.3421 101.47 79.6471 101.192 78.9521ZM92.435 83.5391C92.018 83.9561 91.74 84.6511 91.879 85.2071L92.713 89.0991L89.377 87.1531C88.821 86.8751 88.126 86.8751 87.57 87.1531L84.234 88.9601L85.068 85.0681C85.207 84.5121 84.929 83.8171 84.512 83.4001L81.593 80.7591L85.485 80.3421C86.18 80.3421 86.597 79.9251 86.875 79.3691L88.404 75.7551L89.933 79.3691C90.211 79.9251 90.767 80.3421 91.323 80.3421L95.215 80.7591L92.435 83.5391Z" fill="white"/>
</svg>
