<svg width="114" height="114" viewBox="0 0 114 114" fill="none" xmlns="http://www.w3.org/2000/svg">
<path fill-rule="evenodd" clip-rule="evenodd" d="M87.59 42.826V38.57H11.438V42.826H87.59ZM87.59 48.64V44.384H11.438V48.64H87.59ZM64.714 25.004H34.314V28.31H64.714V25.004ZM33.516 23.408H65.474C65.892 23.408 66.272 23.75 66.272 24.206V29.108C66.272 29.526 65.93 29.906 65.474 29.906H33.516C33.098 29.906 32.718 29.564 32.718 29.108V24.206C32.756 23.75 33.098 23.408 33.516 23.408ZM19.19 55.29V60.268H20.938V55.29H19.19ZM22.534 55.29H28.69V72.542H11.438V55.29H17.594V61.066C17.594 61.484 17.936 61.864 18.392 61.864H21.736C22.154 61.864 22.534 61.522 22.534 61.066V55.29ZM20.938 74.1H19.19V79.04H20.938V74.1ZM28.69 91.314H11.438V74.062H17.594V79.838C17.594 80.256 17.936 80.636 18.392 80.636H21.736C22.154 80.636 22.534 80.294 22.534 79.838V74.062H28.69V91.314ZM19.19 92.91V97.888H20.938V92.91H19.19ZM22.534 92.91H28.69V110.162H11.438V92.91H17.594V98.686C17.594 99.104 17.936 99.484 18.392 99.484H21.736C22.154 99.484 22.534 99.142 22.534 98.686V92.91ZM39.786 74.1H38V79.04H39.748V74.1H39.786ZM47.5 91.314H30.248V74.062H36.404V79.838C36.404 80.256 36.746 80.636 37.202 80.636H40.546C40.964 80.636 41.344 80.294 41.344 79.838V74.062H47.5V91.314ZM41.344 92.91V98.686C41.344 99.104 41.002 99.484 40.546 99.484H37.202C36.784 99.484 36.404 99.142 36.404 98.686V92.91H30.248V110.162H47.5V92.91H41.344ZM38 92.91H39.748V97.888H38V92.91ZM56.81 92.91V97.888H58.558V92.91H56.81ZM60.154 92.91H66.31V110.162H49.058V92.91H55.214V98.686C55.214 99.104 55.556 99.484 56.012 99.484H59.356C59.774 99.484 60.154 99.142 60.154 98.686V92.91ZM41.344 55.29V61.066C41.344 61.484 41.002 61.864 40.546 61.864H37.202C36.784 61.864 36.404 61.522 36.404 61.066V55.29H30.248V72.542H47.5V55.29H41.344ZM38 55.29H39.748V60.268H38V55.29ZM103.74 60.99C95.114 52.364 81.168 52.364 72.58 60.99C63.992 69.616 63.954 83.562 72.58 92.15C81.206 100.776 95.152 100.776 103.74 92.15C112.366 83.524 112.366 69.578 103.74 60.99ZM95.228 99.104V110.124H89.148V100.168C91.276 100.054 93.29 99.712 95.228 99.104ZM95.228 54.036C93.29 53.428 91.276 53.086 89.148 52.972V37.81C89.148 37.392 88.806 37.012 88.35 37.012H10.678C10.26 37.012 9.87999 37.354 9.87999 37.81V110.124H3.79999V32.3L49.514 3.87598L95.228 32.3V54.036ZM77.33 82.764C77.786 83.22 77.786 83.942 77.33 84.398C76.608 85.12 75.392 84.588 75.392 83.6C75.392 82.536 76.646 82.042 77.33 82.764ZM91.77 62.472H95.19V70.87H86.792V62.472H90.212V64.942C90.212 65.968 91.77 65.968 91.77 64.942V62.472ZM86.754 72.428H90.174V80.826H81.776V72.428H85.196V74.898C85.196 75.924 86.754 75.924 86.754 74.898V72.428ZM96.786 82.764C97.242 83.22 97.242 83.942 96.786 84.398C96.064 85.12 94.848 84.588 94.848 83.6C94.81 82.536 96.064 82.042 96.786 82.764ZM98.42 82.422C99.256 84.208 97.926 86.298 95.95 86.298C93.974 86.298 92.644 84.208 93.48 82.422H79.002C79.838 84.208 78.508 86.298 76.532 86.298C73.53 86.298 72.77 82.156 75.506 81.054V67.792L73.34 65.93C72.542 65.246 73.568 64.068 74.366 64.752L76.798 66.804C76.988 66.956 77.102 67.184 77.102 67.45V80.864H80.218V71.668C80.218 71.25 80.56 70.87 81.016 70.87H85.234V61.674C85.234 61.256 85.576 60.876 86.032 60.876H96.026C96.444 60.876 96.824 61.218 96.824 61.674V70.87H101.042C101.46 70.87 101.84 71.212 101.84 71.668V80.864H104.462C105.488 80.864 105.488 82.422 104.462 82.422C102.372 82.422 100.396 82.422 98.42 82.422ZM95.95 80.826H91.732V72.428H95.152V74.898C95.152 75.924 96.71 75.924 96.71 74.898V72.428H100.13V80.826H95.95Z" fill="#0E8372"/>
</svg>
