<svg width="133" height="134" viewBox="0 0 133 134" fill="none" xmlns="http://www.w3.org/2000/svg">
<path d="M116.011 59.4379L95.022 70.5579L95.995 72.3649C94.744 73.1989 92.381 74.3109 90.018 72.9209L81.122 68.1948L80.844 68.0559C80.288 67.9169 75.979 66.9439 73.338 68.1948C72.643 68.4729 71.531 69.0289 70.419 69.5849C69.029 67.9169 66.666 67.2219 64.72 66.8049C60.133 65.9709 53.739 66.5268 51.098 69.0288C49.152 70.8358 42.619 71.3918 37.754 71.3918L39.005 69.1679L18.016 58.0479L0.780001 90.1569L21.769 101.277L24.132 96.8288C27.468 100.165 33.167 106.559 33.723 110.312C33.167 111.007 32.75 111.563 32.472 112.258C31.916 113.787 31.916 115.177 32.75 116.15C33.445 117.123 34.557 117.54 35.947 117.54C36.086 117.54 36.364 117.54 36.503 117.54C37.476 117.401 38.31 117.123 39.283 116.706C38.588 118.652 38.588 120.598 39.7 122.127C40.673 123.378 42.341 124.073 44.148 124.073C45.121 124.073 46.233 123.934 47.345 123.517C48.179 125.324 49.847 128.521 52.488 129.077C52.766 129.216 53.183 129.216 53.461 129.216C54.295 129.216 55.129 128.938 55.824 128.521C56.519 129.494 59.299 133.108 62.635 133.386C62.774 133.386 62.913 133.386 63.052 133.386C64.303 133.386 65.554 132.83 66.527 131.718C69.307 128.799 72.087 124.212 70.975 120.876C70.558 119.764 69.029 118.235 66.249 117.818C66.805 116.567 66.805 115.038 65.971 113.648C65.276 112.536 62.774 109.339 55.407 111.285C55.268 111.007 55.129 110.868 54.99 110.729C53.878 109.2 52.071 108.644 49.708 108.783C47.762 108.922 45.538 109.895 43.592 111.285C43.731 110.312 43.592 109.339 43.036 108.505C41.646 106.698 38.727 106.698 35.947 108.366C34.14 103.084 27.746 96.5509 25.383 94.3269L36.086 74.1719C36.503 74.1719 37.198 74.1719 37.893 74.1719C42.063 74.1719 49.847 73.7548 52.766 71.1138C54.573 69.4458 59.855 68.7509 64.025 69.5849C65.554 69.8629 66.805 70.4188 67.639 70.9749C65.415 72.0869 62.774 73.1989 60.689 74.0329C56.38 75.4229 51.376 76.2568 49.708 75.9788C49.013 75.8398 48.318 76.1178 47.901 76.6738C46.928 78.0638 47.623 80.5659 48.596 82.3729C49.569 84.1799 52.488 88.2108 59.021 87.9328C63.608 87.6548 65.832 87.5159 66.944 87.3769C67.361 87.5159 68.195 88.0718 69.307 89.7399C70.836 91.9639 74.45 96.8288 80.288 97.3848V97.5238C80.844 97.8018 95.439 105.725 100.443 107.81C101.277 108.227 101.833 108.922 101.833 110.034C101.972 111.841 101.138 113.926 99.748 114.899C98.914 115.455 98.08 115.594 97.246 115.177L84.597 109.478L83.485 111.98L94.327 116.984C94.605 117.679 94.188 118.93 93.354 120.042C91.964 121.849 89.462 122.961 87.238 121.849C82.095 119.347 76.118 115.733 75.979 115.733L74.589 118.096C74.589 118.096 80.705 121.71 85.987 124.351C86.126 124.351 86.126 124.49 86.265 124.49C85.57 125.463 84.736 126.019 83.624 126.436C79.593 127.826 74.172 124.629 74.172 124.629L72.782 126.992C73.06 127.131 77.091 129.494 81.4 129.494C82.373 129.494 83.485 129.355 84.458 129.077C86.404 128.382 87.933 127.131 89.184 125.185C91.686 125.185 93.91 123.656 95.439 121.849C96.412 120.598 96.968 119.347 97.107 118.235C97.524 118.374 97.941 118.374 98.358 118.374C99.47 118.374 100.443 118.096 101.416 117.401C103.501 115.872 104.891 112.814 104.613 110.034C104.474 109.061 104.196 108.227 103.779 107.532C104.613 105.447 107.81 102.25 110.312 100.026L111.98 103.362L132.969 92.2419L116.011 59.4379ZM68.334 121.849C68.89 123.517 67.222 126.992 64.442 129.911C63.747 130.606 63.191 130.745 62.774 130.745C60.828 130.606 58.604 127.826 57.909 126.853C60.272 124.351 61.523 123.1 62.496 122.127C63.191 121.432 63.608 120.876 64.303 120.181C68.195 120.181 68.334 121.71 68.334 121.849ZM55.824 113.926C60.272 112.814 62.774 113.787 63.608 115.038C64.025 115.733 63.886 116.706 63.469 117.123C62.079 118.374 61.523 118.93 60.55 120.181C59.577 121.154 58.326 122.544 55.824 125.185C54.851 126.158 54.017 126.575 53.183 126.436C51.654 126.158 50.542 123.795 49.847 122.266C50.264 121.988 50.82 121.71 51.237 121.293C54.017 119.347 55.685 116.428 55.824 113.926ZM45.121 113.509C46.65 112.397 48.457 111.563 49.986 111.424C50.125 111.424 50.403 111.424 50.542 111.424C51.515 111.424 52.349 111.702 52.766 112.258C53.739 113.648 52.627 116.845 49.43 119.347C46.233 121.71 42.758 121.988 41.785 120.598C40.812 119.208 41.924 115.872 45.121 113.509ZM34.974 113.37C35.252 112.536 35.947 111.702 36.92 111.007C38.032 110.173 39.144 109.756 39.978 109.756C40.395 109.756 40.812 109.895 40.951 110.034C41.09 110.312 41.09 110.729 40.951 111.424C40.673 112.258 39.978 113.092 39.005 113.787C38.171 114.482 37.059 114.899 36.225 114.899C35.669 114.899 35.113 114.899 34.974 114.621C34.696 114.343 34.696 113.926 34.974 113.37ZM20.657 97.5238L4.394 89.0448L18.85 61.6618L35.113 70.2799L20.657 97.5238ZM101.694 105.03C98.219 103.501 89.74 99.0529 85.014 96.5509C85.848 96.2729 86.682 95.9948 87.655 95.5778L86.543 93.0759C79.176 96.4119 75.006 92.5198 71.67 87.7938C68.89 83.9018 66.805 84.1798 66.249 84.3188L65.832 84.4579C64.998 84.5969 63.191 84.7358 59.16 84.8748C55.268 85.0139 53.044 83.3458 51.932 81.8168C50.959 80.4268 50.542 79.0368 50.403 78.3418C53.044 78.4808 57.77 77.5078 61.801 76.2568C64.859 75.2838 68.751 73.3379 71.531 71.9479C72.782 71.2529 73.894 70.8358 74.589 70.4188C75.979 69.8628 78.759 70.1408 80.288 70.4188L88.906 75.0059C92.242 76.9519 95.578 75.5618 97.385 74.4499L109.061 96.5509C107.254 98.3579 103.362 101.972 101.694 105.03ZM98.636 71.6699L114.899 63.0518L129.355 90.2959L113.092 98.9138L98.636 71.6699Z" fill="white"/>
<path d="M18.294 94.4659C20.1364 94.4659 21.63 92.9724 21.63 91.1299C21.63 89.2875 20.1364 87.7939 18.294 87.7939C16.4516 87.7939 14.958 89.2875 14.958 91.1299C14.958 92.9724 16.4516 94.4659 18.294 94.4659Z" fill="white"/>
<path d="M116.15 97.9409C117.916 97.9409 119.347 96.5095 119.347 94.7439C119.347 92.9782 117.916 91.5469 116.15 91.5469C114.384 91.5469 112.953 92.9782 112.953 94.7439C112.953 96.5095 114.384 97.9409 116.15 97.9409Z" fill="white"/>
<path d="M57.214 36.6421C56.658 36.6421 56.241 37.0591 56.241 37.6151V57.4921C56.241 58.0481 56.658 58.4651 57.075 58.4651C57.631 58.4651 58.048 58.0481 58.048 57.6311C58.048 57.6311 58.048 57.6311 58.048 57.4921V37.6151C58.048 37.0591 57.631 36.6421 57.214 36.6421Z" fill="white"/>
<path d="M79.732 36.6421C79.176 36.6421 78.759 37.0591 78.759 37.6151V57.4921C78.759 58.0481 79.176 58.4651 79.732 58.4651C80.288 58.4651 80.705 58.0481 80.705 57.4921V37.6151C80.705 37.0591 80.288 36.6421 79.732 36.6421Z" fill="white"/>
<path d="M100.721 28.441C105.308 25.939 106.976 20.24 104.474 15.653C101.972 11.066 96.273 9.39799 91.686 11.9C87.099 14.402 85.431 20.101 87.933 24.688C88.767 26.217 90.018 27.607 91.686 28.441C89.184 29.275 86.96 30.665 85.153 32.611C82.79 27.885 78.62 24.41 73.477 23.02C79.315 20.24 81.678 13.29 78.898 7.45199C76.118 1.61399 69.168 -0.749014 63.33 2.03099C57.492 4.81099 55.129 11.761 57.909 17.599C59.021 19.962 60.967 21.908 63.33 23.02C58.326 24.41 54.017 28.024 51.793 32.611C49.986 30.665 47.762 29.275 45.26 28.441C49.847 25.939 51.515 20.24 49.013 15.653C46.511 11.066 40.812 9.39799 36.225 11.9C31.638 14.402 29.97 20.101 32.472 24.688C33.306 26.217 34.557 27.468 36.225 28.441C30.109 30.387 25.939 36.086 25.939 42.619V57.492C25.939 58.048 26.356 58.465 26.912 58.465C27.468 58.465 27.885 58.048 27.885 57.492V42.619C27.885 35.391 33.723 29.553 40.951 29.553C44.982 29.553 48.735 31.36 51.237 34.557C50.542 36.503 50.125 38.727 50.125 40.812V57.492C50.125 58.048 50.542 58.465 50.959 58.465C51.515 58.465 51.932 58.048 51.932 57.631C51.932 57.631 51.932 57.631 51.932 57.492V40.812C52.071 31.638 59.577 24.132 68.751 24.271C77.786 24.41 85.153 31.638 85.292 40.812V57.492C85.292 58.048 85.709 58.465 86.265 58.465C86.821 58.465 87.238 58.048 87.238 57.492V40.812C87.238 38.727 86.821 36.503 86.126 34.557C90.574 28.858 98.775 27.885 104.335 32.333C107.532 34.835 109.339 38.588 109.339 42.619V57.492C109.339 58.048 109.756 58.465 110.312 58.465C110.868 58.465 111.285 58.048 111.285 57.492V42.619C111.007 36.086 106.837 30.387 100.721 28.441ZM33.306 20.24C33.306 16.07 36.642 12.734 40.812 12.734C44.982 12.734 48.318 16.07 48.318 20.24C48.318 24.41 44.982 27.746 40.812 27.746C36.642 27.746 33.306 24.41 33.306 20.24ZM58.743 12.595C58.743 7.17399 63.052 2.86499 68.473 2.86499C73.894 2.86499 78.203 7.17399 78.203 12.595C78.203 18.016 73.894 22.325 68.473 22.325C63.052 22.325 58.743 17.877 58.743 12.595ZM88.628 20.24C88.628 16.07 91.964 12.734 96.134 12.734C100.304 12.734 103.64 16.07 103.64 20.24C103.64 24.41 100.304 27.746 96.134 27.746C91.964 27.746 88.628 24.41 88.628 20.24Z" fill="white"/>
<path d="M105.03 39.144C104.474 39.144 104.057 39.561 104.057 40.117V57.631C104.057 58.187 104.474 58.604 104.891 58.604C105.447 58.604 105.864 58.187 105.864 57.77C105.864 57.77 105.864 57.77 105.864 57.631V39.978C106.003 39.561 105.586 39.144 105.03 39.144Z" fill="white"/>
<path d="M31.916 39.144C31.36 39.144 30.943 39.561 30.943 40.117V57.631C30.943 58.187 31.36 58.604 31.777 58.604C32.333 58.604 32.75 58.187 32.75 57.77C32.75 57.77 32.75 57.77 32.75 57.631V39.978C32.75 39.561 32.333 39.144 31.916 39.144Z" fill="white"/>
</svg>
