<svg width="139" height="139" viewBox="0 0 139 139" fill="none" xmlns="http://www.w3.org/2000/svg">
<path fill-rule="evenodd" clip-rule="evenodd" d="M54.627 62.2718C56.573 62.2718 58.241 63.9398 58.241 65.8858C58.241 67.8318 56.573 69.4998 54.627 69.4998C52.681 69.4998 51.013 67.8318 51.013 65.8858C51.013 63.9398 52.542 62.2718 54.627 62.2718ZM69.5 62.2718C71.446 62.2718 73.114 63.9398 73.114 65.8858C73.114 67.8318 71.446 69.4998 69.5 69.4998C67.554 69.4998 65.886 67.8318 65.886 65.8858C65.886 63.9398 67.554 62.2718 69.5 62.2718ZM84.373 62.2718C86.319 62.2718 87.987 63.9398 87.987 65.8858C87.987 67.8318 86.319 69.4998 84.373 69.4998C82.427 69.4998 80.759 67.8318 80.759 65.8858C80.898 63.9398 82.427 62.2718 84.373 62.2718ZM22.379 99.8018V70.3338H16.402C14.873 70.3338 13.344 71.0288 12.371 72.0018C11.398 72.9748 10.703 74.5038 10.703 76.0328V93.9638C10.703 95.4928 11.398 97.0218 12.371 97.9948C13.344 98.9678 14.873 99.6628 16.402 99.6628L22.379 99.8018ZM29.051 66.1638C28.217 66.1638 27.522 66.4418 27.105 66.9978C26.549 67.5538 26.271 68.2488 26.271 68.9438V101.192C26.271 102.026 26.549 102.721 27.105 103.138C27.661 103.694 28.356 103.972 29.051 103.972C29.885 103.972 30.58 103.694 30.997 103.138C31.553 102.582 31.831 101.887 31.831 101.192V68.9438C31.831 68.1098 31.553 67.4148 30.997 66.9978C30.441 66.5808 29.746 66.1638 29.051 66.1638ZM109.949 66.1638C109.115 66.1638 108.42 66.4418 108.003 66.9978C107.447 67.5538 107.169 68.2488 107.169 68.9438V101.192C107.169 102.026 107.447 102.721 108.003 103.138C108.559 103.694 109.254 103.972 109.949 103.972C110.644 103.972 111.478 103.694 111.895 103.138C112.451 102.582 112.729 101.887 112.729 101.192V68.9438C112.729 68.1098 112.451 67.4148 111.895 66.9978C111.478 66.5808 110.783 66.1638 109.949 66.1638ZM116.482 70.3338V99.8018H122.459C123.988 99.8018 125.517 99.1068 126.49 98.1338C127.463 97.1608 128.158 95.6318 128.158 94.1028V76.1718C128.158 74.6428 127.463 73.1138 126.49 72.1408C125.517 71.1678 123.988 70.4728 122.459 70.4728L116.482 70.3338ZM33.499 36.5568C34.333 36.5568 35.028 36.1398 35.584 35.5838C39.893 30.8578 45.175 26.9658 50.874 24.4638C56.712 21.8228 62.967 20.4328 69.361 20.4328C75.338 20.4328 81.176 21.5448 86.736 23.9078C92.157 26.1318 97.161 29.4678 101.47 33.7768C102.026 34.3328 102.86 34.6108 103.555 34.6108C104.25 34.6108 105.084 34.3328 105.64 33.7768C106.196 33.2208 106.474 32.3868 106.474 31.6918C106.474 30.8578 106.196 30.1628 105.64 29.6068C100.636 24.6028 95.076 20.9888 88.96 18.4868C82.705 15.8458 75.894 14.5948 69.222 14.5948C61.855 14.5948 54.766 16.1238 48.233 19.0428C41.7 21.9618 35.862 26.2708 30.858 31.6918V31.8308C30.302 32.3868 30.163 33.2208 30.163 33.9158C30.163 34.7498 30.58 35.4448 31.136 36.0008L31.275 36.1398C32.109 36.4178 32.804 36.6958 33.499 36.5568ZM80.203 118.845H75.616C74.782 118.845 74.087 119.123 73.531 119.679C72.975 120.235 72.697 120.93 72.697 121.764C72.697 122.598 72.975 123.293 73.531 123.849C74.087 124.405 74.782 124.683 75.616 124.683H80.203C81.037 124.683 81.732 124.405 82.288 123.849C82.844 123.293 83.122 122.598 83.122 121.764C83.122 120.93 82.844 120.235 82.288 119.679C81.732 119.123 81.037 118.845 80.203 118.845ZM75.616 115.092C73.809 115.092 72.141 115.787 70.89 117.038C69.639 118.289 68.944 119.957 68.944 121.764C68.944 123.571 69.639 125.239 70.89 126.49C72.141 127.741 73.809 128.436 75.616 128.436H80.203C82.01 128.436 83.678 127.741 84.929 126.49C85.763 125.656 86.319 124.683 86.597 123.571C94.381 123.154 102.582 122.32 109.393 119.54C116.621 116.621 122.181 111.895 124.127 103.416C126.073 103.138 127.88 102.165 129.27 100.775C130.938 99.1068 132.05 96.6048 132.05 94.1028V76.1718C132.05 73.5308 130.938 71.1678 129.27 69.4998C127.602 67.8318 125.1 66.7198 122.598 66.7198H119.957C119.957 66.4418 119.957 66.1638 119.957 65.8858C119.957 60.0478 118.984 54.3488 117.038 49.0668C115.231 44.0628 112.729 39.4758 109.671 35.4448C110.366 34.3328 110.783 33.0818 110.783 31.8308C110.783 30.0238 110.088 28.3558 108.837 26.9658C103.555 21.6838 97.439 17.6528 90.906 15.0118C84.095 12.2318 76.867 10.8418 69.778 10.8418C61.855 10.8418 54.21 12.5098 47.26 15.5678C40.31 18.6258 33.916 23.2128 28.634 29.1898V29.3288C27.383 30.7188 26.827 32.5258 26.966 34.1938C27.105 35.4448 27.522 36.6958 28.217 37.8078C25.576 41.6998 23.491 46.0088 21.962 50.5958C20.433 55.4608 19.46 60.7428 19.46 66.1638C19.46 66.3028 19.46 66.5808 19.46 66.9978H16.819C14.178 66.9978 11.815 68.1098 10.147 69.7778C8.479 71.4458 7.367 73.9478 7.367 76.4498V94.3808C7.367 97.0218 8.479 99.3848 10.147 101.053C11.815 102.721 14.317 103.833 16.819 103.833H23.213C23.491 104.667 24.047 105.501 24.742 106.057C25.993 107.308 27.522 108.003 29.329 108.003C31.136 108.003 32.804 107.308 33.916 106.057C35.167 104.806 35.862 103.277 35.862 101.47V68.9438C35.862 67.1368 35.167 65.4688 33.916 64.3568C32.665 63.1058 31.136 62.4108 29.329 62.4108C27.522 62.4108 25.854 63.1058 24.742 64.3568C24.186 64.9128 23.63 65.7468 23.352 66.4418C23.352 66.3028 23.352 66.0248 23.352 65.7468C23.352 60.7428 24.186 55.8778 25.576 51.2908C26.966 47.1208 28.773 43.2288 31.275 39.7538C32.248 40.1708 33.221 40.3098 34.194 40.3098C35.862 40.1708 37.669 39.4758 38.92 38.0858C42.812 33.6378 47.677 30.3018 52.959 27.7998C58.241 25.4368 64.079 24.1858 69.917 24.1858C75.338 24.1858 80.759 25.2978 85.902 27.3828C90.767 29.4678 95.354 32.3868 99.385 36.4178C100.775 37.8078 102.443 38.3638 104.25 38.3638C105.223 38.3638 106.196 38.0858 107.169 37.6688C109.949 41.4218 112.312 45.5918 113.841 50.0398C115.509 54.9048 116.482 60.1868 116.482 65.6078C116.482 65.8858 116.482 66.1638 116.482 66.3028C116.204 65.4688 115.648 64.7738 115.092 64.2178C113.841 62.9668 112.312 62.2718 110.505 62.2718C108.698 62.2718 107.03 62.9668 105.918 64.2178C104.667 65.4688 103.972 66.9978 103.972 68.8048V101.053C103.972 102.86 104.667 104.528 105.918 105.64C107.169 106.752 108.698 107.586 110.505 107.586C112.312 107.586 113.98 106.891 115.092 105.64C115.787 104.945 116.204 104.25 116.621 103.416H120.652C118.845 109.81 114.258 113.563 108.559 115.787C102.304 118.289 94.52 119.123 87.153 119.54C86.875 118.567 86.319 117.594 85.485 116.76C84.234 115.509 82.566 114.814 80.759 114.814L75.616 115.092ZM92.157 48.7888H46.843C46.148 48.7888 45.592 48.9278 45.175 49.3448C44.897 49.6228 44.758 49.9008 44.758 50.1788V79.6468C44.758 79.9248 44.897 80.2028 45.175 80.4808C45.592 80.7588 46.148 81.0368 46.843 81.0368H48.65C49.762 81.0368 50.596 81.8708 50.596 82.9828V89.0988L64.079 81.3148C64.357 81.1758 64.774 81.0368 65.052 81.0368H92.157C92.852 81.0368 93.408 80.8978 93.825 80.4808C94.103 80.2028 94.242 79.9248 94.242 79.6468V50.0398C94.242 49.7618 94.103 49.4838 93.825 49.2058C93.547 48.9278 92.852 48.7888 92.157 48.7888ZM46.843 45.0358C45.314 45.0358 43.785 45.5918 42.812 46.4258C41.561 47.2598 40.727 48.6498 40.727 50.0398V79.5078C40.727 81.0368 41.422 82.2878 42.673 83.2608C43.785 84.0948 45.175 84.6508 46.704 84.6508V92.1568C46.704 92.4348 46.843 92.8518 46.982 93.1298C47.538 94.1028 48.65 94.3808 49.623 93.8248L65.608 84.6508H92.157C93.686 84.6508 95.215 84.0948 96.188 83.2608C97.439 82.2878 98.134 81.0368 98.134 79.5078V50.0398C98.134 48.5108 97.439 47.2598 96.188 46.2868C95.076 45.4528 93.686 44.8968 92.157 44.8968L46.843 45.0358Z" fill="white"/>
</svg>
