<svg width="139" height="139" viewBox="0 0 139 139" fill="none" xmlns="http://www.w3.org/2000/svg">
<path d="M136.359 74.2257C127.602 77.7007 120.513 85.3456 117.872 88.4036C117.455 88.9596 116.899 88.9596 116.482 88.9596C115.926 88.9596 115.509 88.8206 115.092 88.4036L97.995 63.6616C97.856 63.5226 97.856 63.1056 97.856 62.6886C97.995 62.1326 98.412 61.2986 99.246 60.8816C99.802 60.4646 100.914 60.0476 102.165 59.4916C103.833 58.6576 105.918 57.8236 108.281 56.5726L106.891 53.9316C104.667 55.1826 102.582 56.0167 100.914 56.8507C99.524 57.4067 98.412 58.1016 97.578 58.5186C96.188 59.4916 94.937 60.7427 94.659 62.4107C94.659 62.8277 94.659 63.2446 94.659 63.6616H46.982C46.982 63.2446 46.982 62.8277 46.982 62.4107C46.565 61.0207 45.592 59.4916 44.063 58.5186C43.229 58.1016 42.256 57.5457 40.727 56.8507C38.92 56.0167 36.557 55.0436 33.777 53.5146L32.387 56.1557C35.306 57.8237 37.669 58.7967 39.615 59.6307C40.866 60.1867 42.117 60.6037 42.534 61.0207C43.368 61.4377 43.924 62.2716 43.924 62.8276C43.924 63.2446 43.924 63.3837 43.785 63.8007L26.688 88.5426C26.549 88.9596 25.854 89.0986 25.298 89.0986C24.881 89.0986 24.325 89.0986 23.63 88.5426C20.85 85.4846 13.9 77.8396 5.14302 74.3646L4.30902 77.0056C12.649 80.4806 19.738 88.1256 21.545 90.3496C22.518 91.6006 23.769 92.1567 25.437 92.1567H25.576C26.966 92.1567 28.217 91.6006 29.051 90.4886C30.024 91.4616 31.692 92.9907 32.387 94.3806C32.526 94.9366 32.804 95.2147 32.943 95.6317C32.943 95.7707 33.082 96.0486 33.082 96.1876C32.526 96.6046 31.831 97.0216 31.414 97.5776C30.441 98.9676 30.024 100.914 30.163 102.443C30.302 104.25 31.414 105.779 32.804 106.752L32.943 106.891C34.194 107.725 35.445 108.142 36.835 108.142C37.252 108.142 37.669 108.142 38.086 108.003C38.086 108.42 38.086 108.559 38.086 108.976C38.225 110.783 39.337 112.451 40.727 113.424C41.978 114.258 43.368 114.814 44.897 114.814C45.453 114.814 46.148 114.814 46.565 114.675C46.565 114.814 46.565 115.092 46.565 115.231C46.704 117.038 47.816 118.706 49.206 119.679C50.457 120.513 51.847 121.069 53.376 121.069C53.932 121.069 54.627 120.93 55.183 120.652C55.183 120.791 55.183 120.791 55.183 121.069C55.322 122.737 56.156 124.127 57.685 125.239C58.658 126.073 59.909 126.49 61.438 126.49C63.245 126.49 64.913 125.656 66.164 124.266C67.415 124.822 68.666 125.239 69.917 125.239C70.334 125.239 70.751 125.239 71.168 125.1C72.975 124.683 74.643 123.71 75.616 122.181C76.45 120.93 76.867 119.54 76.867 118.289L78.535 119.54C79.786 120.374 81.176 120.791 82.427 120.791C84.651 120.791 86.875 119.818 88.126 117.733C88.96 116.482 89.377 115.092 89.377 113.841L89.794 113.98C91.045 114.814 92.435 115.231 93.686 115.231C94.103 115.231 94.52 115.231 94.937 115.092C96.744 114.675 98.412 113.702 99.385 112.173C100.219 110.922 100.636 109.532 100.636 108.003L101.47 108.559C102.721 109.393 104.111 109.81 105.362 109.81C107.586 109.81 109.81 108.837 111.061 106.752C112.034 105.084 112.451 103.277 112.034 101.47C111.617 99.6626 110.644 97.9947 109.115 97.0217L86.319 81.7316H81.871C74.504 81.7316 73.531 76.1716 73.531 75.6157L74.087 73.9476H58.38L58.241 75.1986C57.685 78.9516 56.434 81.3146 54.488 82.4266C53.515 82.9826 52.403 83.2607 51.569 83.2607V72.9746L63.523 66.4416H65.33H96.327L112.59 90.2107C113.424 91.4617 114.814 92.0177 116.343 92.2957H116.482C117.872 92.2957 119.401 91.7396 120.374 90.4886C122.181 88.2646 129.131 80.6196 137.61 77.1446L136.359 74.2257ZM35.028 104.528L34.889 104.389C34.055 103.833 33.638 102.999 33.499 102.165C33.36 101.192 33.499 100.358 34.055 99.5236C34.611 98.6896 35.723 98.1336 36.974 98.1336C37.808 98.1336 38.364 98.2726 39.059 98.6896L39.198 98.8286C40.588 99.8016 41.005 101.748 40.449 103.138L39.615 104.111V104.25C38.364 105.362 36.418 105.501 35.028 104.528ZM42.812 111.339C41.978 110.783 41.561 109.949 41.422 108.837C41.283 108.003 41.422 107.03 41.978 106.196C42.117 106.057 42.395 105.779 42.395 105.64C42.534 105.501 44.202 102.999 44.202 102.999C44.758 102.026 46.009 101.609 47.26 101.609C48.094 101.609 48.928 101.748 49.484 102.443C51.152 103.694 51.569 105.918 50.318 107.586L48.094 110.644C46.982 112.173 44.48 112.312 42.812 111.339ZM51.43 117.455C50.596 116.899 50.179 116.065 50.04 114.953C49.901 113.98 50.04 112.868 50.596 112.312L52.82 109.254L54.905 106.335C55.461 105.362 56.712 104.945 57.963 104.945C58.797 104.945 59.631 105.084 60.187 105.779C61.021 106.335 61.438 107.169 61.577 108.281C61.716 109.254 61.577 110.366 61.021 110.922L56.712 116.899C55.322 118.289 52.82 118.706 51.43 117.455ZM64.496 121.347L63.94 122.181C62.967 123.432 61.021 123.849 59.631 122.737C59.075 122.32 58.658 121.486 58.38 120.652C58.241 119.818 58.38 118.984 58.936 118.428L59.492 117.594C60.048 116.76 60.882 116.343 61.994 116.343C62.55 116.343 63.245 116.482 63.801 116.899C65.33 118.011 65.608 120.096 64.496 121.347ZM48.372 71.1677V85.7626L49.345 86.1796C49.484 86.1796 52.681 87.1526 55.739 85.3456C58.241 83.9557 59.909 81.1756 60.604 77.1446H71.029C72.002 80.2026 75.199 84.7896 82.288 84.7896H85.763L107.864 99.8017C108.698 100.358 109.254 101.192 109.532 102.304C109.671 103.277 109.532 104.389 108.976 105.223C107.725 107.03 105.223 107.447 103.416 106.196L82.01 91.1836L80.203 93.6856L95.91 104.528C97.717 105.779 98.134 108.281 96.883 110.088C96.327 110.922 95.493 111.478 94.381 111.756C93.408 111.895 92.296 111.756 91.323 111.2L86.18 107.725L78.396 102.443L77.145 105.501L85.346 111.061C86.736 112.312 87.153 114.536 85.902 116.204C84.651 118.011 82.149 118.428 80.342 117.177L70.334 109.81L68.527 112.312L72.28 114.953V115.092C74.087 116.343 74.504 118.845 73.253 120.652C72.697 121.486 71.863 122.042 70.751 122.32C69.778 122.459 68.666 122.32 67.832 121.764C68.666 119.262 67.971 116.482 65.747 114.814C64.913 114.258 63.662 113.841 62.689 113.841L63.245 113.007C65.469 109.949 64.913 105.64 61.855 103.555C60.604 102.721 59.214 102.165 57.685 102.165C56.156 102.165 54.766 102.582 53.515 103.555C53.098 102.165 52.264 100.914 51.013 100.08C48.789 98.4116 45.314 98.4116 42.951 100.08C42.534 98.8286 41.7 97.5776 40.727 96.7436L40.588 96.6046C39.198 95.6316 37.53 95.2146 35.862 95.3536C35.723 95.2146 35.723 94.9366 35.445 94.5196C35.306 94.1026 35.028 93.6856 34.889 93.1296C33.916 91.0446 31.831 89.2376 30.58 88.2646L45.314 66.5807H56.99L48.372 71.1677Z" fill="white"/>
<path d="M84.234 21.128L82.01 19.043L65.608 35.445L59.909 29.468L57.546 31.692L65.608 39.754L84.234 21.128Z" fill="white"/>
<path d="M70.89 53.2368C84.373 53.2368 95.493 42.1168 95.493 28.6338C95.493 15.1508 84.512 4.03076 70.89 4.03076C57.268 4.03076 46.287 15.1508 46.287 28.6338C46.287 42.1168 57.407 53.2368 70.89 53.2368ZM70.89 7.36676C82.844 7.36676 92.435 16.9578 92.435 28.9118C92.435 40.8658 82.844 50.4568 70.89 50.4568C58.936 50.4568 49.345 40.5878 49.345 28.9118C49.345 17.2358 59.075 7.36676 70.89 7.36676Z" fill="white"/>
</svg>
