<svg width="105" height="105" viewBox="0 0 105 105" fill="none" xmlns="http://www.w3.org/2000/svg">
<path fill-rule="evenodd" clip-rule="evenodd" d="M20.265 75.46V84.875H28.105V75.46H20.265ZM30.52 75.46H37.73V102.55H10.675V75.46H17.885V86.1C17.885 86.415 18.025 86.73 18.235 86.94C18.445 87.15 18.76 87.29 19.075 87.29H29.33C29.995 87.29 30.52 86.765 30.52 86.1V75.46ZM18.515 94.395H13.685V99.225H18.515V94.395ZM12.985 92.995C12.6 92.995 12.285 93.31 12.285 93.695V99.925C12.285 100.31 12.6 100.625 12.985 100.625H19.215C19.6 100.625 19.915 100.31 19.915 99.925V93.695C19.915 93.31 19.6 92.995 19.215 92.995H12.985ZM27.23 99.435H34.615C35 99.435 35.315 99.12 35.315 98.735C35.315 98.35 35 98.035 34.615 98.035H27.23C26.845 98.035 26.53 98.35 26.53 98.735C26.53 99.12 26.845 99.435 27.23 99.435ZM49.77 75.46V84.875H57.61V75.46H49.77ZM60.025 75.46H67.235V102.55H40.145V75.46H47.355V86.1C47.355 86.765 47.88 87.29 48.545 87.29H58.8C59.465 87.29 59.99 86.765 59.99 86.1L60.025 75.46ZM48.02 94.395H43.19V99.225H48.02V94.395ZM42.455 92.995C42.07 92.995 41.755 93.31 41.755 93.695V99.925C41.755 100.31 42.07 100.625 42.455 100.625H48.685C49.07 100.625 49.385 100.31 49.385 99.925V93.695C49.385 93.31 49.07 92.995 48.685 92.995H42.455ZM56.735 99.435H64.12C64.505 99.435 64.82 99.12 64.82 98.735C64.82 98.35 64.505 98.035 64.12 98.035H56.735C56.35 98.035 56.035 98.35 56.035 98.735C56.035 99.12 56.35 99.435 56.735 99.435ZM79.275 75.46V84.875H87.15V75.46H79.275ZM89.53 75.46H96.74V102.55H69.65V75.46H76.86V86.1C76.86 86.415 77 86.73 77.21 86.94C77.42 87.15 77.735 87.29 78.05 87.29H88.305C88.62 87.29 88.935 87.15 89.145 86.94C89.355 86.73 89.495 86.415 89.495 86.1L89.53 75.46ZM77.525 94.395H72.695V99.225H77.525V94.395ZM71.96 92.995C71.575 92.995 71.26 93.31 71.26 93.695V99.925C71.26 100.31 71.575 100.625 71.96 100.625H78.19C78.575 100.625 78.89 100.31 78.89 99.925V93.695C78.89 93.31 78.575 92.995 78.19 92.995H71.96ZM86.24 99.435H93.625C94.01 99.435 94.325 99.12 94.325 98.735C94.325 98.35 94.01 98.035 93.625 98.035H86.24C85.855 98.035 85.54 98.35 85.54 98.735C85.54 99.12 85.855 99.435 86.24 99.435ZM35.245 46.27V55.685H43.085V46.27H35.245ZM45.5 46.27H52.71V73.045H25.62V46.27H32.83V56.91C32.83 57.575 33.355 58.1 34.02 58.1H44.275C44.94 58.1 45.465 57.575 45.465 56.91L45.5 46.27ZM33.46 65.205H28.63V70.035H33.46V65.205ZM27.93 63.805C27.545 63.805 27.23 64.12 27.23 64.505V70.735C27.23 71.12 27.545 71.435 27.93 71.435H34.16C34.545 71.435 34.86 71.12 34.86 70.735V64.505C34.86 64.12 34.545 63.805 34.16 63.805H27.93ZM42.21 70.245H49.595C49.98 70.245 50.295 69.93 50.295 69.545C50.295 69.16 49.98 68.845 49.595 68.845H42.21C41.825 68.845 41.51 69.16 41.51 69.545C41.51 69.93 41.825 70.245 42.21 70.245ZM64.75 46.27V55.685H72.59V46.27H64.75ZM75.005 46.27H82.215V73.045H55.125V46.27H62.335V56.91C62.335 57.575 62.86 58.1 63.525 58.1H73.78C74.445 58.1 74.97 57.575 74.97 56.91L75.005 46.27ZM62.965 65.205H58.135V70.035H62.965V65.205ZM57.435 63.805C57.05 63.805 56.735 64.12 56.735 64.505V70.735C56.735 71.12 57.05 71.435 57.435 71.435H63.665C64.05 71.435 64.365 71.12 64.365 70.735V64.505C64.365 64.12 64.05 63.805 63.665 63.805H57.435ZM71.715 70.245H79.1C79.485 70.245 79.8 69.93 79.8 69.545C79.8 69.16 79.485 68.845 79.1 68.845H71.715C71.33 68.845 71.015 69.16 71.015 69.545C71.015 69.93 71.33 70.245 71.715 70.245ZM12.355 40.95H14.455L9.51999 35.63L4.58499 40.95H6.68499C7.34999 40.95 7.87499 41.475 7.87499 42.14V60.76H11.13V42.14C11.165 41.51 11.69 40.95 12.355 40.95ZM98.28 40.95H100.38L95.445 35.63L90.545 40.95H92.645C93.31 40.95 93.835 41.475 93.835 42.14V60.76H97.09V42.14C97.09 41.51 97.615 40.95 98.28 40.95ZM66.15 7.59501C62.3 3.74501 56.84 1.89001 51.415 2.59001C45.99 3.29001 41.195 6.51001 38.465 11.235C35.735 15.96 35.35 21.7 37.45 26.775C39.55 31.815 43.855 35.63 49.14 37.03C54.425 38.43 60.06 37.31 64.4 33.985C68.74 30.66 71.295 25.48 71.295 20.02C71.33 15.365 69.475 10.885 66.15 7.59501ZM52.5 18.76C51.345 18.62 50.26 18.235 49.28 17.605C48.37 17.115 47.775 16.205 47.705 15.155C47.81 14.14 48.405 13.23 49.28 12.74C50.26 12.11 51.345 11.725 52.5 11.585V18.76ZM54.915 21.315C56.07 21.455 57.155 21.84 58.135 22.47C59.045 22.96 59.64 23.87 59.71 24.885C59.605 25.9 59.01 26.81 58.135 27.3C57.155 27.93 56.07 28.315 54.915 28.455V21.315ZM52.5 6.68501C52.5 6.02001 53.025 5.49501 53.69 5.49501C54.355 5.49501 54.88 6.02001 54.88 6.68501V9.20501C56.49 9.34501 58.065 9.87001 59.43 10.78C61.005 11.725 62.02 13.37 62.09 15.19C62.09 15.855 61.565 16.38 60.9 16.38C60.235 16.38 59.71 15.855 59.71 15.19C59.605 14.175 59.01 13.265 58.135 12.775C57.155 12.145 56.07 11.76 54.915 11.62V18.9C56.525 19.04 58.1 19.565 59.465 20.475C61.04 21.42 62.02 23.065 62.125 24.885C62.055 26.705 61.04 28.385 59.465 29.295C58.1 30.17 56.525 30.73 54.915 30.87V33.39C54.915 34.055 54.39 34.58 53.725 34.58C53.06 34.58 52.535 34.055 52.535 33.39V30.87C50.925 30.73 49.35 30.17 47.985 29.295C46.41 28.35 45.43 26.705 45.325 24.885C45.325 24.22 45.85 23.695 46.515 23.695C47.18 23.695 47.705 24.22 47.705 24.885C47.81 25.9 48.405 26.81 49.28 27.3C50.26 27.93 51.345 28.315 52.5 28.455V21.175C50.89 21.035 49.315 20.475 47.95 19.6C46.375 18.69 45.395 17.01 45.29 15.19C45.36 13.37 46.375 11.69 47.95 10.78C49.315 9.90501 50.89 9.34501 52.5 9.20501V6.68501Z" fill="#0E8372"/>
</svg>
