<svg width="105" height="105" viewBox="0 0 105 105" fill="none" xmlns="http://www.w3.org/2000/svg">
<path d="M11.41 55.9301H4.55V97.0201H11.41C13.3 97.0201 14.84 95.48 14.84 93.59V59.3251C14.84 57.4701 13.3 55.9301 11.41 55.9301Z" fill="#0E8372"/>
<path d="M96.53 60.5151C94.045 59.0451 91.07 58.9751 88.515 60.3401L66.08 72.3801C65.555 76.6151 61.985 79.9051 57.61 79.9051H43.855C42.91 79.9051 42.14 79.1351 42.14 78.1901C42.14 77.2451 42.91 76.4751 43.855 76.4751H57.61C60.445 76.4751 62.755 74.1651 62.755 71.3301C62.755 68.5651 60.55 66.2901 57.785 66.2201C56.77 66.2201 40.215 66.2201 40.215 66.2201L34.37 60.3751C33.74 59.7451 32.865 59.3601 31.955 59.3601H18.235V93.6251H24.29L35.385 97.0551C39.97 98.5251 44.905 100.485 50.365 100.485C55.3 100.485 60.165 98.8401 64.365 95.6201L96.985 74.0251C99.155 72.5201 100.485 70.0351 100.485 67.4101C100.45 64.5401 98.98 61.9851 96.53 60.5151Z" fill="#0E8372"/>
<path d="M21.665 21.665H28.525V13.125C28.525 12.18 29.295 11.41 30.24 11.41C31.185 11.41 31.955 12.18 31.955 13.125V21.7H42.245V13.125C42.245 12.18 43.015 11.41 43.96 11.41C44.905 11.41 45.675 12.18 45.675 13.125V21.7H55.965V13.125C55.965 12.18 56.735 11.41 57.68 11.41C58.625 11.41 59.395 12.18 59.395 13.125V21.7H69.685V13.125C69.685 12.18 70.455 11.41 71.4 11.41C72.345 11.41 73.115 12.18 73.115 13.125V21.7H79.975C81.865 21.7 83.405 20.16 83.405 18.27V7.98005C83.405 6.09005 81.865 4.55005 79.975 4.55005H21.665C19.775 4.55005 18.235 6.09005 18.235 7.98005V18.27C18.235 20.16 19.775 21.665 21.665 21.665Z" fill="#0E8372"/>
<path d="M73.045 55.9301C74.935 55.9301 76.475 54.3901 76.475 52.5001V25.0951H25.095V52.5001C25.095 54.3901 26.635 55.9301 28.525 55.9301H31.955V35.3851C31.955 33.4951 33.495 31.9551 35.385 31.9551H42.245C44.135 31.9551 45.675 33.4951 45.675 35.3851V55.9301H73.045ZM49.07 35.3851C49.07 33.4951 50.61 31.9551 52.5 31.9551H66.185C68.075 31.9551 69.615 33.4951 69.615 35.3851V45.6751C69.615 47.5651 68.075 49.1051 66.185 49.1051H52.5C50.61 49.1051 49.07 47.5651 49.07 45.6751V35.3851Z" fill="#0E8372"/>
</svg>
