<svg width="139" height="139" viewBox="0 0 139 139" fill="none" xmlns="http://www.w3.org/2000/svg">
<path fill-rule="evenodd" clip-rule="evenodd" d="M15.429 120.374C14.595 120.374 14.039 119.679 14.039 118.984V91.462C14.039 90.628 14.734 90.072 15.429 90.072H33.638C34.472 90.072 35.028 90.767 35.028 91.462V118.984C35.028 119.818 34.333 120.374 33.638 120.374H15.429ZM15.985 124.544H128.853C129.687 124.544 130.243 125.239 130.243 125.934V130.66C130.243 131.494 129.548 132.05 128.853 132.05H15.985C15.151 132.05 14.595 131.355 14.595 130.66V125.934C14.595 125.1 15.29 124.544 15.985 124.544ZM127.463 127.324H17.514V129.131H127.463V127.324ZM32.109 117.594V92.852H16.819V117.455H32.109V117.594ZM40.866 117.594H56.156V87.709C51.43 89.933 46.704 90.628 41.005 91.323H40.866V117.594ZM57.546 120.374H39.337C38.503 120.374 37.947 119.679 37.947 118.984V90.072C37.947 89.377 38.503 88.682 39.337 88.682L40.588 88.543C46.843 87.709 51.847 87.014 56.851 84.234C57.546 83.817 58.38 83.956 58.797 84.651C58.936 84.929 59.075 85.207 59.075 85.485V119.123C58.936 119.818 58.38 120.374 57.546 120.374ZM64.774 117.594H80.064V78.674C77.84 80.0639 75.616 81.315 73.253 82.427C70.473 83.678 67.693 84.79 64.774 85.763V117.594ZM81.593 120.374H63.384C62.55 120.374 61.994 119.679 61.994 118.984V84.651C61.994 83.956 62.411 83.4 63.106 83.261C66.164 82.288 69.222 81.176 72.141 79.786C75.199 78.396 77.979 76.728 80.759 74.782C81.315 74.226 82.288 74.365 82.844 74.921C83.122 75.199 83.122 75.477 83.122 75.894V118.845C82.983 119.818 82.288 120.374 81.593 120.374ZM88.682 117.594H103.972V63.106L88.682 74.226V117.594ZM105.501 120.374H87.292C86.458 120.374 85.902 119.679 85.902 118.984V73.531C85.902 72.975 86.18 72.558 86.597 72.28L104.667 59.214C105.223 58.658 106.196 58.797 106.613 59.492C106.752 59.77 106.891 60.048 106.891 60.326V118.984C106.891 119.818 106.335 120.374 105.501 120.374ZM112.729 117.594H128.019V45.3139H119.401L112.729 56.434V117.594ZM129.409 120.374H111.339C110.505 120.374 109.949 119.679 109.949 118.984V56.017C109.949 55.739 110.088 55.461 110.227 55.183L117.455 43.229C117.733 42.812 118.15 42.395 118.706 42.395H129.548C130.382 42.395 130.938 43.09 130.938 43.785V118.984C130.938 119.818 130.243 120.374 129.409 120.374ZM36.835 23.491C36.835 23.074 37.252 22.796 37.53 22.796C37.947 22.796 38.225 23.074 38.225 23.491V26.688C40.31 26.827 42.395 27.522 44.063 28.634C45.87 29.885 46.982 31.831 47.121 33.916C47.121 34.75 46.426 35.306 45.592 35.306C44.897 35.306 44.202 34.611 44.202 33.916C44.063 32.665 43.507 31.553 42.395 30.858C41.144 30.024 39.615 29.468 38.225 29.468V38.503C42.812 39.337 47.121 40.31 47.121 45.731C46.982 47.955 45.87 49.901 44.063 51.013C42.256 52.264 40.31 52.959 38.225 52.959V56.156C38.225 56.573 37.808 56.851 37.53 56.851C37.113 56.851 36.835 56.573 36.835 56.156V52.959C34.75 52.82 32.665 52.125 30.997 51.013C29.19 49.762 28.078 47.816 27.939 45.731C27.939 44.897 28.634 44.341 29.468 44.341C30.163 44.341 30.858 45.036 30.858 45.731C30.997 46.982 31.553 48.0939 32.665 48.7889C33.916 49.623 35.445 50.179 36.835 50.179V41.144C32.248 40.31 27.939 39.337 27.939 33.916C28.078 31.692 29.19 29.746 30.997 28.634C32.804 27.383 34.75 26.688 36.835 26.688V23.491ZM38.225 41.422V50.179C39.754 50.04 41.144 49.623 42.395 48.7889C43.507 48.0939 44.063 46.982 44.202 45.731C44.341 42.812 41.422 41.978 38.225 41.422ZM36.835 38.225V29.468C35.306 29.607 33.916 30.024 32.665 30.858C31.553 31.553 30.997 32.665 30.858 33.916C30.719 36.835 33.638 37.669 36.835 38.225ZM37.53 15.568C24.047 15.568 13.205 26.41 13.205 39.893C13.205 53.376 24.047 64.079 37.53 64.079C51.013 64.079 61.855 53.237 61.855 39.754C61.855 33.36 59.353 27.105 54.766 22.518C50.179 18.07 43.924 15.568 37.53 15.568ZM53.654 23.63C44.758 14.734 30.302 14.734 21.267 23.63C12.232 32.526 12.371 46.982 21.267 56.017C30.163 65.052 44.619 64.913 53.654 56.017C57.963 51.708 60.326 45.87 60.326 39.893C60.326 33.777 57.963 27.939 53.654 23.63ZM37.53 10.425C21.267 10.425 8.062 23.63 8.062 39.754C8.062 55.878 21.267 69.222 37.53 69.222C53.793 69.222 66.998 56.017 66.998 39.754C66.998 31.97 63.94 24.464 58.38 18.904C52.82 13.483 45.314 10.425 37.53 10.425ZM56.295 20.989C45.87 10.564 29.051 10.564 18.765 20.989C8.479 31.414 8.34 48.233 18.765 58.519C29.19 68.805 46.009 68.944 56.295 58.519C61.299 53.515 64.079 46.843 64.079 39.754C64.079 32.804 61.299 25.993 56.295 20.989ZM104.528 25.715L95.493 21.406L118.428 10.425L124.266 35.167L116.76 31.692C116.065 31.414 115.231 31.692 114.814 32.387C114.814 32.387 114.814 32.526 114.675 32.526C108.003 50.04 92.713 63.384 74.782 72.002C59.075 79.5079 41.978 83.4 24.603 83.122C40.171 80.0639 55.044 74.226 68.666 66.025C84.79 56.295 98.551 43.09 105.223 27.661C105.501 26.966 105.362 26.271 104.667 25.854L104.528 25.715ZM102.026 27.8L91.601 22.796C90.906 22.518 90.628 21.545 90.906 20.85C91.045 20.572 91.323 20.294 91.601 20.155L118.845 7.08895C119.54 6.81095 120.374 7.08895 120.791 7.78395C120.791 7.92295 120.93 7.92295 120.93 8.06195L127.88 37.391C128.019 38.225 127.602 38.92 126.768 39.059C126.49 39.198 126.073 39.059 125.795 38.92L117.038 34.75C109.81 52.264 94.381 65.747 76.311 74.504C55.461 84.512 30.997 88.265 11.537 84.512C10.703 84.373 10.286 83.678 10.425 82.844C10.564 82.1489 11.12 81.732 11.815 81.732C28.495 81.037 49.484 74.504 67.554 63.523C82.427 54.349 95.493 42.117 102.026 27.8Z" fill="white"/>
</svg>
