<svg width="72" height="84" viewBox="0 0 72 84" fill="none" xmlns="http://www.w3.org/2000/svg">
<path d="M46.5742 78.9075C46.7695 79.1028 46.8828 79.3684 46.8828 79.6458C46.8828 79.9231 46.7695 80.1887 46.5742 80.384L44.125 82.8645C43.9297 83.0599 43.6641 83.1731 43.3867 83.1731C43.1094 83.1731 42.8438 83.0599 42.6485 82.8645L40.168 80.384C39.9726 80.1887 39.8594 79.9231 39.8594 79.6458C39.8594 79.3684 39.9726 79.1028 40.168 78.9075C40.5742 78.5012 41.2305 78.5012 41.6368 78.9075L42.3438 79.6145V71.9153C42.3438 71.3411 42.8125 70.8762 43.3868 70.8762C43.961 70.8762 44.4298 71.3411 44.4298 71.9153V79.6145L45.1368 78.9075C45.5392 78.5208 46.1719 78.5208 46.5742 78.9075ZM55.2187 78.9075L54.5117 79.6145V74.1653C54.5117 73.5911 54.0468 73.1262 53.4687 73.1262C52.8945 73.1262 52.4296 73.5911 52.4296 74.1653V79.6145L51.7304 78.9075C51.3202 78.4973 50.6601 78.4973 50.2499 78.9075C49.8436 79.3137 49.8436 79.9778 50.2499 80.3841L52.7382 82.8646H52.7421C53.1483 83.2669 53.8046 83.2669 54.2109 82.8646L56.6992 80.3841C57.1093 79.9778 57.1093 79.3138 56.6992 78.9075C56.289 78.4973 55.6289 78.4973 55.2187 78.9075ZM65.3437 78.9075L64.6367 79.6145V71.9153C64.6367 71.3411 64.1718 70.8762 63.5937 70.8762C63.0195 70.8762 62.5546 71.3411 62.5546 71.9153V79.6145L61.8358 78.9075C61.4296 78.5012 60.7733 78.5012 60.367 78.9075C60.1678 79.1028 60.0584 79.3684 60.0584 79.6458C60.0584 79.9231 60.1678 80.1887 60.367 80.384L62.8748 82.8645C63.0741 83.0599 63.3397 83.1692 63.617 83.1653C63.8944 83.1692 64.16 83.0599 64.3553 82.8645L66.8358 80.384C67.0311 80.1887 67.1444 79.9231 67.1444 79.6458C67.1444 79.3684 67.0311 79.1028 66.8358 78.9075C66.6366 78.7044 66.371 78.5911 66.0897 78.5911C65.8085 78.5911 65.5429 78.7043 65.3437 78.9075ZM52.3667 31.7705C51.9722 26.7978 49.6519 22.1767 45.8979 18.8875C42.1479 15.5984 37.2612 13.907 32.2769 14.1727C27.2964 14.4344 22.6128 16.6336 19.2299 20.3016C15.8471 23.9657 14.0268 28.8055 14.1596 33.7936C14.2963 38.7819 16.3705 43.5163 19.9448 46.9966C23.5229 50.4732 28.3159 52.4185 33.3038 52.4146C33.2413 49.9576 33.6319 47.5044 34.46 45.188H25.8038C23.3663 45.188 21.3897 43.2153 21.3858 40.7818V25.7898C21.3897 23.3562 23.3663 21.3836 25.8038 21.3836H40.7808C43.2066 21.4031 45.1636 23.368 45.1675 25.7898V33.5007C47.4409 32.4851 49.8784 31.8994 52.3667 31.7705ZM33.8977 28.6455L36.5032 30.4775L36.4993 23.4697H30.0931V30.5127L32.6673 28.6768C32.8431 28.5557 33.0501 28.4893 33.2611 28.4893C33.4876 28.4815 33.7103 28.5479 33.8978 28.6768L33.8977 28.6455ZM33.304 54.4775C27.761 54.4853 22.441 52.3213 18.472 48.4541C14.5032 44.5869 12.2064 39.3174 12.0736 33.7781C11.9368 28.239 13.972 22.8681 17.7455 18.8091C21.5189 14.7544 26.7299 12.3325 32.2655 12.0669C37.8007 11.7973 43.2185 13.7075 47.3635 17.3833C51.508 21.0591 54.051 26.2114 54.4494 31.7383C58.9182 31.9336 63.1916 33.625 66.5864 36.5391V27.6953C66.5864 27.4218 66.477 27.1562 66.2817 26.9609C66.0864 26.7656 65.8207 26.6562 65.5434 26.6562H64.3364C61.8794 26.5937 59.7036 25.0468 58.8364 22.75V22.6445C57.8364 20.414 58.2856 17.8007 59.9692 16.0312L60.8325 15.1758H60.8364C61.0317 14.9805 61.1372 14.7148 61.1372 14.4375C61.1333 14.1601 61.0239 13.8945 60.8364 13.6953L52.9184 5.7891C52.5121 5.38676 51.8559 5.38676 51.4496 5.7891L50.5941 6.64457C48.8285 8.33597 46.2152 8.78907 43.9808 7.78907H43.8753C41.5589 6.91798 40.0081 4.72267 39.9612 2.24997V1.03907C39.9612 0.76563 39.8519 0.500009 39.6566 0.304689C39.4612 0.109379 39.1956 0 38.9183 0H27.6993C27.1251 0 26.6563 0.46484 26.6563 1.0391V1.9141C26.6758 4.4727 25.1329 6.7852 22.7618 7.75L22.3672 7.90625C20.1875 8.83203 17.6641 8.33203 16 6.64455L15.1368 5.78908C14.7305 5.38674 14.0743 5.38674 13.668 5.78908L5.76176 13.6953C5.56645 13.8906 5.45317 14.1601 5.45317 14.4375C5.45317 14.7148 5.56645 14.9804 5.76176 15.1757L6.61723 16.0312C8.27743 17.6874 8.77743 20.1835 7.87503 22.3515L7.58206 23.0586L7.58597 23.0625C6.68753 25.2383 4.56647 26.6602 2.21097 26.6563H1.04297C0.76953 26.6563 0.50781 26.7656 0.3125 26.957C0.11328 27.1523 0.00391 27.418 0 27.6953V38.8753C0 39.1488 0.109379 39.4144 0.304689 39.6097C0.499999 39.805 0.76563 39.9144 1.04297 39.9144H2.24997C4.71087 39.973 6.88667 41.5199 7.74997 43.8206L7.80075 43.9261H7.80466C8.78513 46.1644 8.32028 48.7777 6.62496 50.5394L5.76949 51.3948H5.77339C5.57417 51.5901 5.4648 51.8558 5.4648 52.1331C5.4648 52.4104 5.57418 52.68 5.77339 52.8753L13.6796 60.7815C14.0858 61.1838 14.7421 61.1838 15.1484 60.7815L16.0117 59.926C17.7773 58.2307 20.3945 57.7776 22.625 58.7815H22.7304C25.0234 59.6526 26.5624 61.8284 26.6249 64.2815V65.5393C26.6249 65.8167 26.7343 66.0823 26.9296 66.2776C27.1249 66.4729 27.3906 66.5823 27.6679 66.5823H38.9179C39.1132 66.5784 39.3046 66.5159 39.4687 66.4065C36.1835 63.2268 34.0664 59.0315 33.4687 54.5005L33.304 54.4775ZM28.179 36.3755H38.417C38.6943 36.3755 38.9599 36.4849 39.1552 36.6802C39.3506 36.8755 39.4599 37.1411 39.4599 37.4146C40.5537 36.3365 41.7685 35.3912 43.0849 34.5942V25.7896C43.0849 25.1724 42.8388 24.5786 42.4013 24.1451C41.9599 23.7076 41.3701 23.4654 40.749 23.4693H38.5849V32.5123V32.5084C38.5849 32.899 38.3662 33.2584 38.0224 33.4381C37.874 33.5123 37.7099 33.5513 37.542 33.5513C37.331 33.5513 37.124 33.4849 36.9482 33.3638L33.292 30.8013L29.6475 33.3638C29.3389 33.5748 28.9405 33.6021 28.6045 33.4381C28.2608 33.2545 28.0498 32.899 28.0537 32.5084V23.4693H25.8037C24.5185 23.4693 23.4756 24.5045 23.4678 25.7896V40.7816C23.4757 42.0668 24.5186 43.1019 25.8037 43.1019H35.3154H35.3115C36.1318 41.4105 37.1826 39.8402 38.4365 38.4378H28.1785C27.6004 38.4378 27.1355 37.969 27.1355 37.3948C27.1355 36.8205 27.6004 36.3518 28.1785 36.3518L28.179 36.3755ZM63.718 47.6955C65.7258 52.5822 64.0031 58.2075 59.6047 61.1295C55.2062 64.0515 49.3547 63.4615 45.6277 59.7154C41.9011 55.9693 41.3386 50.1177 44.2879 45.7314C47.2332 41.3486 52.866 39.6533 57.7409 41.6884C60.4557 42.8134 62.6086 44.9768 63.718 47.6955ZM57.9055 49.1447V49.2072C57.9055 49.4845 58.0148 49.7502 58.2102 49.9455C58.4055 50.1408 58.6711 50.2502 58.9484 50.2502C59.2258 50.2502 59.4914 50.1408 59.6867 49.9455C59.882 49.7502 59.9914 49.4845 59.9914 49.2072C59.9914 48.172 59.5773 47.176 58.8469 46.4455C58.1125 45.7111 57.1203 45.301 56.0852 45.301H54.5422V43.4377C54.5422 42.8596 54.0774 42.3947 53.4992 42.3947C52.925 42.3947 52.4601 42.8595 52.4601 43.4377V45.2385H50.7413C49.7022 45.1838 48.6905 45.5588 47.9405 46.2697C47.1866 46.9845 46.7608 47.9767 46.7608 49.0158C46.7608 50.051 47.1866 51.0431 47.9405 51.758C48.6905 52.4728 49.7022 52.8439 50.7413 52.7892H56.2101C57.1476 52.7892 57.9054 53.5509 57.9054 54.4884C57.9054 55.4259 57.1476 56.1876 56.2101 56.1876H50.8663C49.8585 56.1798 49.0421 55.3634 49.0421 54.3517C49.0421 53.7775 48.5773 53.3126 47.9991 53.3126C47.4249 53.3126 46.96 53.7774 46.96 54.3517C46.9717 56.504 48.7139 58.2423 50.8662 58.2501H52.46V60.3321C52.46 60.9063 52.9248 61.3751 53.4991 61.3751C54.0772 61.3751 54.5421 60.9063 54.5421 60.3321V58.2501H56.2101C58.296 58.2501 59.9913 56.5548 59.9913 54.4689C59.9913 52.3791 58.296 50.6877 56.2101 50.6877H50.7413C50.2686 50.7228 49.8038 50.5627 49.4561 50.2385C49.1084 49.9182 48.9092 49.4689 48.9092 48.9924C48.9092 48.5197 49.1085 48.0666 49.4561 47.7463C49.8038 47.426 50.2686 47.2658 50.7413 47.3009H56.0851C56.5695 47.3009 57.0382 47.4963 57.382 47.8439C57.7218 48.1877 57.9133 48.6564 57.9055 49.1447ZM70.1675 58.8752C68.3198 63.3049 64.7886 66.8205 60.3472 68.6486C55.9097 70.4767 50.9253 70.4689 46.4922 68.6212C42.0625 66.7735 38.543 63.2423 36.7149 58.8009C34.8868 54.3634 34.8985 49.379 36.7461 44.9459C38.5899 40.5162 42.1211 36.9967 46.5625 35.1686C51 33.3405 55.9844 33.3522 60.4175 35.196C64.8433 37.0515 68.355 40.5866 70.1792 45.0241C72.0073 49.4616 72.0034 54.4412 70.1675 58.8752ZM65.648 46.9062C63.2457 41.1054 57.0816 37.8124 50.925 39.039C44.7688 40.2617 40.335 45.664 40.335 51.941C40.335 58.218 44.7686 63.621 50.925 64.843C57.0812 66.0696 63.245 62.7766 65.648 56.9758C66.9878 53.7531 66.9878 50.1285 65.648 46.9062Z" fill="#00A797"/>
</svg>
