<svg width="85" height="66" viewBox="0 0 85 66" fill="none" xmlns="http://www.w3.org/2000/svg">
<path d="M83.4375 41.8743C82.8125 41.4055 82.0313 41.093 81.25 41.2493L49.844 46.5618C49.6878 47.8118 49.0628 49.0618 48.2815 50.1556C46.8753 51.8744 44.6877 52.8118 42.5003 52.8118C41.0941 52.8118 39.8441 52.4993 38.5941 51.718L30.4691 46.5618C29.6879 46.093 29.5316 45.1556 30.0004 44.3743C30.4691 43.593 31.4066 43.4368 32.1879 43.9055L40.3129 49.0617C42.1879 50.1555 44.5317 49.843 45.9379 48.1242C46.7191 47.1867 47.1879 45.7804 46.8754 44.5304C46.7191 43.2804 45.9379 42.1866 44.6879 41.5616L30.1569 33.1241C29.6881 32.8116 29.2194 32.8116 28.9069 32.9679L12.5009 38.4367V61.2487L36.8759 65.6237C37.1884 65.6237 37.5009 65.6237 37.8134 65.4674L82.8134 46.4054C83.7509 45.9367 84.5322 44.9992 84.5322 43.9054C84.3759 43.1242 84.0626 42.343 83.4375 41.8743Z" fill="#00A797"/>
<path d="M51.5625 6.25031C41.2505 6.25031 32.8125 14.6878 32.8125 25.0003C32.8125 27.3441 33.2812 29.5315 34.0625 31.7191L46.2505 38.7503C47.9693 39.6878 49.2193 41.4065 49.688 43.4378L60.313 41.719C66.563 38.4378 70.313 32.1878 70.313 25.157C70.313 14.688 61.875 6.25031 51.5625 6.25031ZM51.5625 23.4383C55 23.4383 57.8125 26.2508 57.8125 29.6883C57.8125 32.6571 55.7813 35.0008 53.125 35.7821V37.5009C53.125 38.4384 52.5 39.0634 51.5625 39.0634C50.625 39.0634 50 38.4384 50 37.5009V35.9384H46.875C45.9375 35.9384 45.3125 35.3134 45.3125 34.3759C45.3125 33.4384 45.9375 32.8134 46.875 32.8134H51.5625C53.2813 32.8134 54.6875 31.4072 54.6875 29.6884C54.6875 27.9696 53.2813 26.5634 51.5625 26.5634C48.125 26.5634 45.3125 23.7509 45.3125 20.3134C45.3125 17.3446 47.3437 15.0009 50 14.2196V12.5008C50 11.5633 50.625 10.9383 51.5625 10.9383C52.5 10.9383 53.125 11.5633 53.125 12.5008V14.0633H56.25C57.1875 14.0633 57.8125 14.6883 57.8125 15.6258C57.8125 16.5633 57.1875 17.1883 56.25 17.1883H51.5625C49.8437 17.1883 48.4375 18.5945 48.4375 20.3133C48.4375 22.0321 49.8437 23.4383 51.5625 23.4383Z" fill="#00A797"/>
<path d="M27.8125 30.0003C28.5937 29.6878 29.375 29.6878 30.1563 29.844C29.8438 28.2815 29.5313 26.719 29.5313 25.0002C29.5313 12.9692 39.3751 3.12525 51.4063 3.12525C63.4375 3.12525 73.2813 12.969 73.2813 25.0002C73.2813 30.9377 70.9375 36.4063 66.8751 40.4693L71.5626 39.688C74.6876 35.4692 76.4064 30.313 76.4064 25C76.4064 11.25 65.1564 0 51.4064 0C37.6564 0 26.4064 11.25 26.4064 25C26.4064 26.7188 26.5626 28.4375 26.8751 30.1562L27.8125 30.0003Z" fill="#00A797"/>
<path d="M7.8125 35.9373H1.5625C0.625 35.9373 0 36.5623 0 37.4998V62.4998C0 63.4373 0.625 64.0623 1.5625 64.0623H7.8125C8.75 64.0623 9.375 63.4373 9.375 62.4998V37.4998C9.375 36.5623 8.75 35.9373 7.8125 35.9373Z" fill="#00A797"/>
</svg>
