<svg width="87" height="55" viewBox="0 0 87 55" fill="none" xmlns="http://www.w3.org/2000/svg">
<path d="M13.6808 43.4645H6.53863L6.21118 46.5717H12.5602C12.7457 45.4765 13.1242 44.425 13.6808 43.4645Z" fill="#00A797"/>
<path d="M27.9429 48.1216C27.9429 51.5527 25.1632 54.3324 21.7358 54.3324C18.3048 54.3324 15.525 51.5527 15.525 48.1216C15.525 44.6943 18.3048 41.9145 21.7358 41.9145C25.1632 41.9145 27.9429 44.6943 27.9429 48.1216Z" fill="#00A797"/>
<path d="M1.55362 0.000366211C0.694957 0.000366211 0 0.695296 0 1.55036C0 2.40902 0.694929 3.10398 1.55362 3.10398H3.10724C3.96226 3.10398 4.65723 2.40905 4.65723 1.55036C4.65723 0.695333 3.9623 0.000366211 3.10724 0.000366211H1.55362Z" fill="#00A797"/>
<path d="M1.55362 37.2575C0.694957 37.2575 0 37.9524 0 38.8075C0 39.6661 0.694929 40.3611 1.55362 40.3611H16.5943C19.7088 38.2908 23.7583 38.2908 26.8726 40.3611H59.3012L63.3653 1.10979C63.398 0.825994 63.3034 0.542198 63.1142 0.331173C62.9214 0.120149 62.6485 -0.00356366 62.3647 7.82259e-05H15.5242C14.6655 7.82259e-05 13.9706 0.695008 13.9706 1.55007C13.9669 1.95392 14.1306 2.34323 14.4181 2.62698C14.7055 2.9326 15.1057 3.10361 15.5241 3.10361H18.6277C21.2 3.10361 23.2848 5.18843 23.2848 7.76075C23.2848 10.3331 21.2 12.4179 18.6277 12.4179H6.20987C5.35121 12.4179 4.65625 13.1128 4.65625 13.9715C4.65625 14.8265 5.35118 15.5215 6.20987 15.5215H12.4206C14.993 15.5215 17.0778 17.6063 17.0778 20.1786C17.0778 22.751 14.993 24.8358 12.4206 24.8358H4.65635C3.80132 24.8358 3.10636 25.5307 3.10636 26.3894C3.10636 27.2481 3.80129 27.943 4.65635 27.943H12.4206C14.993 27.943 17.0778 30.0278 17.0778 32.6001C17.0778 35.1725 14.993 37.2573 12.4206 37.2573L1.55362 37.2575Z" fill="#00A797"/>
<path d="M79.1714 48.1216C79.1714 51.5527 76.3917 54.3324 72.9643 54.3324C69.5333 54.3324 66.7535 51.5527 66.7535 48.1216C66.7535 44.6943 69.5333 41.9145 72.9643 41.9145C76.3917 41.9145 79.1714 44.6943 79.1714 48.1216Z" fill="#00A797"/>
<path d="M30.9084 46.5717H63.7887C63.9743 45.4766 64.3527 44.4251 64.9093 43.4646H29.788C30.3446 44.4251 30.7265 45.4767 30.9084 46.5717Z" fill="#00A797"/>
<path d="M78.5204 9.31464H72.7863L71.4656 22.0268V22.0231C71.4328 22.347 71.5383 22.6671 71.7566 22.9073C71.975 23.1474 72.2842 23.2857 72.608 23.2857H86.1575L80.3033 10.4571V10.4535C79.9795 9.76217 79.2844 9.31828 78.5204 9.31464Z" fill="#00A797"/>
<path d="M86.7791 43.4645H81.0195C81.5798 44.425 81.9582 45.4766 82.1438 46.5717H86.4444L86.7791 43.4645Z" fill="#00A797"/>
<path d="M72.6076 26.3896C71.4032 26.3896 70.2572 25.8802 69.4495 24.9888C68.6417 24.0938 68.2524 22.9003 68.3762 21.6997L69.6642 9.31082L65.6365 9.31446L62.4202 40.3608H67.8232C70.9377 38.2905 74.9872 38.2905 78.1015 40.3608H85.3964L86.8554 26.3894L72.6076 26.3896Z" fill="#00A797"/>
</svg>
