<svg width="58" height="58" viewBox="0 0 58 58" fill="none" xmlns="http://www.w3.org/2000/svg">
<path d="M0 17.44V58H6.35616V22.9614C6.35616 22.5216 6.71191 22.1651 7.15068 22.1651H50.8493C51.2881 22.1651 51.6438 22.5216 51.6438 22.9614V58H58V17.44L29 0L0 17.44Z" fill="#00A797"/>
<path d="M8 58H16.3208V50.8837C16.3208 50.4471 16.6756 50.093 17.1132 50.093H20.283V42.9767C20.283 42.5401 20.6378 42.186 21.0755 42.186H24.2453V35.0698C24.2453 34.6331 24.6001 34.2791 25.0377 34.2791H32.9623C33.3999 34.2791 33.7547 34.6331 33.7547 35.0698V42.186H36.9245C37.3622 42.186 37.717 42.5401 37.717 42.9767V50.093H40.8868C41.3244 50.093 41.6792 50.4471 41.6792 50.8837V58H50V24H8V58Z" fill="#00A797"/>
<path d="M30 44V50H33H36V44H33H30Z" fill="#00A797"/>
<path d="M34 58H40V52H37H34V58Z" fill="#00A797"/>
<path d="M26 52V58H32V52H29H26Z" fill="#00A797"/>
<path d="M26 42H29H32V36H26V42Z" fill="#00A797"/>
<path d="M18 52V58H24V52H21H18Z" fill="#00A797"/>
<path d="M22 44V50H25H28V44H25H22Z" fill="#00A797"/>
</svg>
