<svg width="90" height="88" viewBox="0 0 90 88" fill="none" xmlns="http://www.w3.org/2000/svg">
<path fill-rule="evenodd" clip-rule="evenodd" d="M35.0663 68.1291L18.9349 7.7338L18.6795 7.39871C18.5616 7.33958 18.4044 7.30016 18.2472 7.33958L4.08065 11.1636C0.111664 12.228 -1.85318 5.38816 2.35159 4.26462L16.8521 0.361795C20.8211 -0.702613 24.4561 0.519485 25.6154 4.85596L41.6485 64.8373C42.2183 64.7585 42.7685 64.719 43.3186 64.719L36.815 40.3954C36.6578 39.7646 37.0311 39.1338 37.6402 38.9564L78.2536 28.0364C78.8823 27.8787 79.5111 28.2335 79.6879 28.8643L89.964 67.3209C90.1212 67.9517 89.7479 68.5825 89.1388 68.7598L75.7386 72.367L65.5017 79.5813C65.4035 79.6602 65.2659 79.7193 65.1284 79.7587L52.6123 83.3068C51.0994 85.337 48.9381 86.8942 46.3052 87.6038C40.1159 89.2596 33.7498 85.5735 32.0993 79.3842C30.9597 75.2843 32.1976 71.0464 35.0663 68.1291ZM45.7943 65.0147C50.7261 66.1185 54.4789 70.3565 54.8523 75.5602L87.3901 66.8084L77.7231 30.6186L67.7809 33.2796L72.6145 51.3942C72.8306 52.2221 72.1232 53.05 71.1801 52.8332L62.633 51.0394L56.0312 56.9528C55.3828 57.5244 54.3414 57.2288 54.1253 56.3615L49.3114 38.2468L39.3693 40.9276L45.7943 65.0147ZM44.694 73.8848C42.6113 72.6824 39.8408 74.4761 40.5285 77.1568C40.7447 77.9059 41.2359 78.4972 41.845 78.852C44.026 80.1135 46.6981 78.103 46.0301 75.6194C45.8336 74.8506 45.3228 74.2396 44.694 73.8848Z" fill="#00A797"/>
</svg>
